<?xml version="1.0" encoding="UTF-8" standalone="no"?>
<svg
   xmlns:dc="http://purl.org/dc/elements/1.1/"
   xmlns:cc="http://creativecommons.org/ns#"
   xmlns:rdf="http://www.w3.org/1999/02/22-rdf-syntax-ns#"
   xmlns:svg="http://www.w3.org/2000/svg"
   xmlns="http://www.w3.org/2000/svg"
   id="svg8"
   version="1.1"
   viewBox="0 0 210 297"
   height="297mm"
   width="210mm">
  <defs
     id="defs2" />
  <metadata
     id="metadata5">
    <rdf:RDF>
      <cc:Work
         rdf:about="">
        <dc:format>image/svg+xml</dc:format>
        <dc:type
           rdf:resource="http://purl.org/dc/dcmitype/StillImage" />
        <dc:title></dc:title>
      </cc:Work>
    </rdf:RDF>
  </metadata>
  <g
     id="layer1">
    <g
       id="g1321">
      <path
         style="fill:#000000;stroke-width:0.06114814"
         d="m 17.491629,137.88436 c -0.16618,-0.0305 -0.30464,-0.16683 -0.49946,-0.49186 l -0.1687,-0.28147 -0.0472,-2.07904 c -0.026,-1.14347 -0.0707,-5.09211 -0.0994,-8.77476 -0.0287,-3.68264 -0.0837,-10.74067 -0.12222,-15.6845 -0.0385,-4.94382 -0.0567,-9.47031 -0.0403,-10.05886 0.0279,-1.001209 0.0382,-1.076989 0.16094,-1.177109 0.12236,-0.0998 0.44522,-0.10701 4.82152,-0.10701 h 4.69037 l 0.14479,-0.25988 c 0.2308,-0.41424 0.89388,-1.31379 1.40855,-1.91087 1.38711,-1.60923 3.12754,-2.94607 5.07318,-3.89676 0.9508,-0.46458 1.03875,-0.50092 2.03581,-0.84124 1.39615,-0.47654 2.98698,-0.80376 4.32789,-0.89023 0.32186,-0.0208 0.6209,-0.0598 0.66453,-0.0868 0.06,-0.0371 0.0202,-0.13644 -0.16356,-0.40787 -0.24122,-0.356362 -1.00145,-1.6076 -1.3326,-2.193283 -0.27431,-0.485155 -1.21988,-2.360202 -1.32596,-2.62937 -0.053,-0.134526 -0.17104,-0.409692 -0.26226,-0.611481 -0.26072,-0.576701 -0.30892,-0.69498 -0.54829,-1.345259 -0.12381,-0.336315 -0.24915,-0.666515 -0.27855,-0.733778 -0.0604,-0.138158 -0.16503,-0.462243 -0.36528,-1.131241 -0.0755,-0.252236 -0.18663,-0.609953 -0.24696,-0.794926 -0.13341,-0.409154 -0.43396,-1.642604 -0.61088,-2.507074 -0.0379,-0.184973 -0.0942,-0.420815 -0.12529,-0.5241 -0.0311,-0.10328 -0.0565,-0.271156 -0.0565,-0.373053 0,-0.101897 -0.0265,-0.265041 -0.059,-0.362547 -0.0534,-0.16063 -0.0951,-0.446321 -0.24434,-1.675411 -0.2999,-2.469443 -0.30037,-5.539606 -10e-4,-7.979832 0.13623,-1.111428 0.29452,-2.146483 0.36468,-2.384777 0.0297,-0.100895 0.072,-0.335367 0.094,-0.52105 l 0.0399,-0.337605 -0.50976,-0.392993 c -0.64595,-0.497984 -2.17709,-2.021288 -2.67552,-2.661834 -0.20936,-0.269052 -0.4221,-0.540165 -0.47277,-0.602469 -0.60553,-0.744637 -1.6417,-2.624979 -2.12781,-3.861346 -0.0926,-0.23542 -0.19307,-0.475818 -0.22335,-0.534215 -0.0303,-0.0584 -0.0551,-0.148204 -0.0551,-0.199563 0,-0.05136 -0.025,-0.14116 -0.0555,-0.199563 -0.10005,-0.191393 -0.2003,-0.568781 -0.55612,-2.093492 -0.0977,-0.418522 -0.17995,-1.091048 -0.25297,-2.067474 -0.14226,-1.902337 0.1437,-4.176045 0.75126,-5.973507 0.87889,-2.600177 2.10434,-4.584443 3.99792,-6.473432 1.1787,-1.175843 2.77413,-2.317639 4.24812,-3.040221 0.39006,-0.19122 1.04203,-0.484069 1.07767,-0.484069 0.0193,0 0.12179,-0.03805 0.22778,-0.08455 0.10597,-0.0465 0.28899,-0.118072 0.4067,-0.159041 0.11771,-0.04097 0.26905,-0.09839 0.33631,-0.127603 0.10456,-0.04541 0.55216,-0.170739 1.49813,-0.419479 0.11771,-0.03095 0.37912,-0.08808 0.58091,-0.126951 0.20179,-0.03887 0.47696,-0.09528 0.61148,-0.125362 0.37448,-0.08373 2.26077,-0.241519 2.84422,-0.237925 0.55695,0.0034 2.58374,0.199073 3.08715,0.297997 0.28874,0.05674 0.47997,0.09762 1.13124,0.241857 0.41545,0.09201 1.27882,0.357356 1.62043,0.498021 0.0673,0.0277 0.38578,0.149729 0.70782,0.271182 1.5047,0.567467 3.51394,1.778664 4.83416,2.914091 0.18054,0.155259 0.43164,0.315684 0.55802,0.356499 0.12637,0.04082 0.25804,0.127039 0.2926,0.191609 0.0649,0.121249 0.23487,0.155199 0.33675,0.06726 0.0319,-0.02758 0.26447,-0.114224 0.5167,-0.192553 0.25224,-0.07833 0.58244,-0.18167 0.73378,-0.229645 0.15134,-0.04798 0.42651,-0.128811 0.61148,-0.179634 0.18498,-0.05082 0.43263,-0.119368 0.55034,-0.152321 0.27376,-0.07664 0.53675,-0.141197 1.07009,-0.262668 0.38628,-0.08798 0.68604,-0.149271 1.651,-0.337583 2.12454,-0.414604 5.04182,-0.607098 7.49545,-0.494579 1.30217,0.05971 2.2231,0.126981 2.90893,0.212474 l 0.25379,0.03164 0.38373,-0.502468 c 2.26382,-2.964265 4.97545,-5.099417 8.189194,-6.448207 0.11771,-0.0494 0.26905,-0.113536 0.33631,-0.14252 0.16093,-0.06934 1.33094,-0.446783 1.68158,-0.542464 1.53809,-0.41972 2.38574,-0.523543 4.24979,-0.52053 1.79128,0.0029 2.1273,0.04193 3.88291,0.451083 0.33471,0.07801 1.47966,0.477378 1.89559,0.66121 1.89397,0.837075 3.17747,1.717205 4.62391,3.170743 1.69271,1.701023 2.969687,3.812935 3.749347,6.200791 0.65657,2.010873 0.86595,3.39894 0.86575,5.739275 0,1.84548 -0.18087,3.412371 -0.55106,4.778206 -0.0319,0.11771 -0.0996,0.380978 -0.15044,0.585041 -0.0968,0.388725 -0.37129,1.253978 -0.46417,1.463422 -0.0298,0.06726 -0.1083,0.273638 -0.17437,0.458611 -0.29952,0.838396 -1.13743,2.541342 -1.742047,3.540496 -0.34218,0.565455 -0.39712,0.719494 -0.29769,0.834654 0.0276,0.03195 0.12848,0.250707 0.2242,0.486128 0.0957,0.23542 0.2206,0.538103 0.27749,0.672629 0.21382,0.505506 0.25937,0.622238 0.405657,1.039519 0.0825,0.23542 0.17431,0.48307 0.20396,0.550333 0.0952,0.21592 0.50196,1.495084 0.68059,2.140186 0.0372,0.134526 0.0903,0.313384 0.11796,0.397463 0.0276,0.08408 0.0674,0.249179 0.0884,0.366889 0.021,0.11771 0.0606,0.28281 0.088,0.366889 0.0274,0.08408 0.082,0.304212 0.12147,0.489185 0.0394,0.184973 0.0957,0.446381 0.12492,0.580907 0.18495,0.850498 0.36717,1.972334 0.49163,3.026832 0.36312,3.0764 0.26117,7.064751 -0.2501,9.783704 -0.0348,0.184973 -0.0914,0.487656 -0.12579,0.672629 -0.1119,0.601649 -0.5602,2.508829 -0.66117,2.812815 -0.0279,0.08408 -0.12565,0.40052 -0.21716,0.703203 -0.20832,0.688975 -0.38972,1.247306 -0.45696,1.406408 -0.0284,0.06726 -0.15299,0.397463 -0.2768,0.733778 -0.123807,0.336314 -0.261227,0.694031 -0.305357,0.794925 -0.0442,0.100895 -0.15462,0.3616 -0.24551,0.579342 -0.0909,0.217749 -0.3274,0.735937 -0.52558,1.15153 -0.19819,0.415593 -0.36034,0.763783 -0.36034,0.773763 0,0.01 -0.12017,0.234735 -0.26704,0.49947 -0.14688,0.264735 -0.34317,0.618923 -0.43621,0.78708 -0.44873,0.811027 -1.07641,1.823921 -1.59663,2.576499 -0.31574,0.45678 -0.57408,0.84897 -0.57408,0.87153 0,0.0225 0.68104,0.044 1.51342,0.0477 1.50985,0.007 2.23225,0.0694 3.483187,0.30252 0.29551,0.0551 0.62698,0.11347 0.7366,0.12975 0.10961,0.0163 0.21442,0.0541 0.23291,0.084 0.0185,0.0299 0.0995,0.0544 0.18,0.0544 0.0805,0 0.20959,0.0259 0.28684,0.0575 0.0773,0.0316 0.37436,0.12892 0.66022,0.21617 0.28587,0.0873 0.5748,0.18151 0.64206,0.20945 0.2151,0.0894 0.45464,0.18787 0.59619,0.24515 1.0748,0.43491 2.54715,1.30922 3.43959,2.0425 1.30961,1.07606 2.13302,2.06649 2.98341,3.58861 l 0.15373,0.27516 4.20993,0.0306 c 3.07951,0.0224 4.25388,0.0502 4.37363,0.1038 0.09,0.0403 0.23939,0.20239 0.33191,0.36026 0.15479,0.264129 0.17222,0.360779 0.21834,1.210889 0.0276,0.50811 0.0788,4.63859 0.11391,9.17884 0.0351,4.54025 0.0912,10.70399 0.12481,13.69719 0.0848,7.5619 0.0967,12.43923 0.032,13.06915 -0.0417,0.40594 -0.0783,0.54034 -0.15287,0.56117 -0.0539,0.0151 -7.37617,0.0434 -16.2717,0.0631 -8.895527,0.0196 -25.460561,0.0637 -36.811181,0.098 -21.94137,0.0663 -49.12453,0.10358 -49.32045,0.0677 z"
         id="path1279" />
      <path
         id="path1281"
         style="fill:#000000;stroke-width:0.06114814"
         d="m 66.292319,161.89352 c -1.07886,-0.17881 -1.88035,-0.72624 -2.58408,-1.76497 -0.28865,-0.42607 -0.71937,-1.31381 -0.9025,-1.86012 -0.0902,-0.26905 -0.18666,-0.54422 -0.21439,-0.61148 -0.0277,-0.0673 -0.064,-0.19109 -0.0806,-0.27517 -0.0166,-0.0841 -0.0892,-0.373 -0.16128,-0.64206 -0.22786,-0.85008 -0.47488,-2.37977 -0.61221,-3.79118 -0.16295,-1.67475 -0.20594,-2.92675 -0.21008,-6.11734 -0.005,-3.83636 -0.031,-3.60537 0.44043,-3.90161 0.30308,-0.19044 0.4914,-0.2343 1.14498,-0.26671 0.74439,-0.0369 1.29111,0.1275 1.58482,0.47655 l 0.1579,0.18766 -6.1e-4,2.91513 c 0,1.60332 0.0276,3.32788 0.0619,3.83236 0.0343,0.50447 0.0902,1.34373 0.12425,1.86501 0.10189,1.55811 0.3006,3.02159 0.58119,4.28037 0.0862,0.38677 0.17113,0.772 0.18871,0.85608 0.0176,0.0841 0.0545,0.2079 0.082,0.27517 0.0275,0.0673 0.12528,0.36994 0.21719,0.67263 0.26879,0.88519 0.51845,1.32862 0.51845,0.92082 0,-0.0821 0.0243,-0.1643 0.0541,-0.18269 0.0297,-0.0184 0.0691,-0.10944 0.0874,-0.20234 0.22482,-1.13876 0.31713,-1.71739 0.41714,-2.61483 0.22673,-2.03458 0.27906,-2.52792 0.35023,-3.302 0.034,-0.36995 0.0911,-0.89964 0.1268,-1.1771 0.0357,-0.27746 0.0925,-0.73837 0.1261,-1.02423 0.18743,-1.59313 0.22755,-1.90103 0.3685,-2.82811 0.0345,-0.22701 0.0919,-0.63288 0.12756,-0.90193 0.0923,-0.69707 0.1981,-1.38896 0.35516,-2.32363 0.0339,-0.20179 0.0909,-0.55891 0.1267,-0.7936 0.0907,-0.59478 0.18003,-0.86303 0.33641,-1.00994 0.22767,-0.21388 0.74793,-0.36722 1.24594,-0.36722 0.53157,0 0.86349,0.0838 1.20035,0.3032 0.22328,0.1454 0.24624,0.18526 0.26362,0.45756 0.0163,0.25576 -0.13965,1.56885 -0.35271,2.96928 -0.0333,0.2186 -0.0774,0.52128 -0.0981,0.67263 -0.0207,0.15134 -0.0606,0.4265 -0.0886,0.61148 -0.028,0.18497 -0.0797,0.55645 -0.1148,0.8255 -0.0351,0.26905 -0.0927,0.6818 -0.12808,0.91722 -0.0677,0.45053 -0.15215,1.05952 -0.24603,1.7733 -0.031,0.23542 -0.0742,0.5381 -0.0961,0.67263 -0.0651,0.39995 -0.1347,0.9289 -0.23745,1.80387 -0.41067,3.49704 -0.54306,4.40386 -0.81687,5.59505 -0.0728,0.31675 -0.35857,1.15351 -0.50224,1.47064 -0.18001,0.39736 -0.63904,0.97828 -0.93264,1.18028 -0.30517,0.20996 -0.64359,0.34986 -0.96091,0.39723 -0.11771,0.0176 -0.29657,0.0444 -0.39747,0.0597 -0.10089,0.0153 -0.34854,6.1e-4 -0.55033,-0.0331 z m 9.81022,0.39024 c -0.50286,-0.16582 -0.71681,-0.30299 -1.16016,-0.7438 -0.77075,-0.76632 -1.11434,-1.47558 -1.58487,-3.27153 -0.15118,-0.57703 -0.21671,-0.86861 -0.34358,-1.52871 -0.0517,-0.26905 -0.12105,-0.62676 -0.15407,-0.79492 -0.22186,-1.12951 -0.43274,-2.64933 -0.55574,-4.00521 -0.10016,-1.10407 -0.10558,-4.70042 -0.008,-5.50333 0.12413,-1.02447 0.38318,-2.14297 0.63022,-2.72109 0.52393,-1.22606 0.93706,-1.79498 1.68244,-2.31684 0.68179,-0.47734 1.24373,-0.64323 2.1905,-0.64667 1.35149,-0.005 2.576604,0.5435 3.371684,1.50928 0.59829,0.72673 0.7896,1.3229 0.79047,2.46317 6.1e-4,0.79027 -0.047,1.17928 -0.24332,1.98732 -0.25577,1.05292 -0.30033,1.1115 -0.98022,1.28859 -0.4208,0.1096 -0.60444,0.10951 -1.026974,-6.1e-4 -0.87568,-0.22808 -0.95806,-0.36213 -0.7748,-1.2607 0.15241,-0.74727 0.1753,-2.10719 0.0437,-2.59556 -0.13483,-0.50031 -0.35299,-0.8993 -0.66035,-1.20767 -0.3082,-0.30923 -0.37864,-0.33817 -0.50806,-0.20875 -0.24351,0.24351 -0.76563,1.25726 -0.76563,1.48655 0,0.0464 -0.0261,0.13218 -0.058,0.19058 -0.0319,0.0584 -0.0902,0.28504 -0.12944,0.50364 -0.26507,1.47569 -0.34281,3.09525 -0.24908,5.18872 0.0401,0.89612 0.0976,1.87695 0.12783,2.17963 0.0894,0.89708 0.24408,2.23564 0.30376,2.62937 0.17202,1.1349 0.2189,1.41292 0.30935,1.83445 0.0289,0.13452 0.0985,0.47848 0.15468,0.76435 0.0562,0.28587 0.12726,0.56754 0.15789,0.62594 0.0306,0.0584 0.0557,0.16196 0.0557,0.23013 0,0.0682 0.0318,0.1855 0.0707,0.26072 0.0389,0.0752 0.089,0.17638 0.11138,0.22483 0.0628,0.13591 0.18485,0.14975 0.18485,0.021 0,-0.0633 0.0223,-0.1413 0.0496,-0.17325 0.0273,-0.032 0.15344,-0.33326 0.28028,-0.66957 0.12684,-0.33631 0.25363,-0.66651 0.28176,-0.73378 0.0281,-0.0673 0.12434,-0.32867 0.21381,-0.58091 0.0895,-0.25223 0.18543,-0.51364 0.21324,-0.5809 0.10492,-0.25381 0.24121,-0.63743 0.42493,-1.1961 0.1044,-0.31746 0.21678,-0.62498 0.24973,-0.68338 0.0329,-0.0584 0.0599,-0.1482 0.0599,-0.19956 0,-0.0514 0.0274,-0.14116 0.0609,-0.19956 0.0335,-0.0584 0.16861,-0.43654 0.30026,-0.84031 0.13164,-0.40376 0.28077,-0.84403 0.33141,-0.97837 0.0506,-0.13433 0.13997,-0.40934 0.19852,-0.61113 0.0585,-0.20179 0.12965,-0.39303 0.158,-0.42498 0.0284,-0.0319 0.0516,-0.10799 0.0516,-0.16899 0,-0.061 0.0263,-0.15867 0.0585,-0.21707 0.0488,-0.0885 0.90632,-2.73072 1.11607,-3.43876 0.0349,-0.11771 0.0875,-0.2618 0.11705,-0.32019 0.0295,-0.0584 0.0536,-0.14821 0.0536,-0.19956 0,-0.0514 0.0255,-0.14117 0.0567,-0.19957 0.0312,-0.0584 0.10023,-0.25752 0.15339,-0.44249 0.1411,-0.49093 0.34118,-1.144 0.46836,-1.5287 0.0611,-0.18498 0.13831,-0.44639 0.17148,-0.58091 0.0568,-0.23037 0.11264,-0.4347 0.24648,-0.90194 0.0313,-0.1093 0.11237,-0.4155 0.18014,-0.68045 0.0708,-0.27689 0.1809,-0.54313 0.25888,-0.62615 0.49756,-0.52962 2.13575,-0.5128 2.56813,0.0264 0.13089,0.16323 0.13149,0.17794 0.0945,2.28489 -0.0205,1.16633 -0.0447,2.15693 -0.0539,2.20133 -0.0135,0.0653 0.36703,0.0838 1.99388,0.0969 1.33115,0.0107 2.03662,-0.005 2.08758,-0.0477 0.0518,-0.043 0.0889,-0.34849 0.11345,-0.93335 0.11007,-2.62282 0.11156,-2.6284 0.77194,-2.89752 0.42518,-0.17328 1.57551,-0.15079 1.97298,0.0386 0.16028,0.0763 0.34991,0.22099 0.42143,0.32142 0.12582,0.17671 0.12838,0.21743 0.0795,1.26165 -0.0278,0.59347 -0.0521,2.55118 -0.054,4.35047 -0.003,2.96818 0.0271,4.07701 0.21094,7.73524 0.18261,3.63444 0.17921,4.57828 -0.0176,4.87848 -0.41833,0.63814 -1.75117,0.72838 -2.3614,0.15987 -0.16387,-0.15268 -0.33655,-0.53807 -0.42181,-0.94143 -0.43841,-2.07414 -0.65001,-4.9565 -0.72406,-9.86306 l -0.039,-2.58643 -2.02525,0.0418 c -1.11389,0.023 -2.03549,0.0506 -2.048,0.0613 -0.13972,0.12026 -0.14831,6.55036 -0.0123,9.22784 0.19317,3.80374 0.16769,4.33002 -0.22834,4.71464 -0.11949,0.11604 -0.28796,0.23091 -0.37438,0.25525 -0.30194,0.085 -1.74534,0.0513 -1.93659,-0.0453 -0.32883,-0.16604 -0.51499,-0.31672 -0.60402,-0.48889 -0.13258,-0.25638 -0.2315,-2.35129 -0.2571,-5.44468 -0.0121,-1.46297 -0.0373,-2.70122 -0.0561,-2.75166 -0.0187,-0.0504 -0.19765,0.40357 -0.39756,1.00894 -0.19991,0.60537 -0.38878,1.1557 -0.41971,1.22296 -0.0309,0.0673 -0.15553,0.42498 -0.27689,0.79493 -0.12136,0.36995 -0.24676,0.72041 -0.27866,0.77881 -0.0319,0.0584 -0.058,0.1482 -0.058,0.19956 0,0.0514 -0.0243,0.14116 -0.054,0.19956 -0.10119,0.19889 -0.18245,0.41146 -0.34451,0.90111 -0.0891,0.26905 -0.19083,0.55797 -0.22619,0.64205 -0.0354,0.0841 -0.0851,0.20791 -0.11055,0.27517 -0.6914,1.82754 -1.116304,2.50973 -1.759034,2.82419 -0.29844,0.14602 -0.4341,0.17236 -0.95982,0.18638 -0.464,0.0124 -0.69465,-0.0108 -0.95261,-0.0959 z m -18.36652,0.005 c -0.27476,-0.0719 -0.42476,-0.15721 -0.61999,-0.35244 l -0.25755,-0.25754 -0.0377,-0.91032 c -0.0208,-0.50068 -0.0651,-1.21462 -0.0985,-1.58653 -0.0778,-0.8657 -0.0793,-5.82612 -0.002,-6.61331 0.0323,-0.32923 0.0692,-0.89756 0.082,-1.26297 0.0228,-0.65245 0.0212,-0.66177 -0.088,-0.51976 -0.0612,0.0796 -0.11183,0.16677 -0.11258,0.19384 -7.3e-4,0.0271 -0.0539,0.16465 -0.11813,0.30574 -0.0642,0.14109 -0.22965,0.54545 -0.3676,0.89858 -0.13795,0.35313 -0.2726,0.68333 -0.29923,0.73377 -0.0266,0.0505 -0.18101,0.50448 -0.34307,1.00895 -0.16206,0.50447 -0.31881,0.965 -0.34834,1.0234 -0.0295,0.0584 -0.0537,0.1482 -0.0537,0.19956 0,0.0514 -0.0248,0.14116 -0.0552,0.19957 -0.0303,0.0584 -0.0899,0.23 -0.13237,0.38134 -0.10627,0.37887 -0.3551,0.837 -0.50952,0.93805 -0.45728,0.29927 -1.66551,0.38301 -2.2689,0.15726 -0.18765,-0.0702 -0.40801,-0.19449 -0.4897,-0.27617 -0.12996,-0.12996 -1.65747,-3.15328 -2.23661,-4.4268 -0.11468,-0.25218 -0.32382,-0.69245 -0.46475,-0.97837 l -0.25623,-0.51984 -0.004,0.28397 c -0.002,0.15619 0.0237,0.55518 0.0571,0.88665 0.0334,0.33147 0.0906,0.98791 0.12721,1.45875 0.0632,0.81307 0.0982,1.19279 0.2342,2.53765 0.0323,0.3195 0.0869,0.86225 0.12135,1.20612 0.0597,0.59589 0.19064,1.74044 0.32026,2.79908 0.13521,1.10418 0.13456,1.14841 -0.019,1.31798 -0.33766,0.37274 -1.25483,0.60109 -1.96112,0.48825 -1.001,-0.15991 -1.22665,-0.40147 -1.34163,-1.43622 -0.0338,-0.3044 -0.0837,-0.73231 -0.11084,-0.95092 -0.0271,-0.2186 -0.0947,-0.82397 -0.15018,-1.34526 -0.0555,-0.52128 -0.12726,-1.19544 -0.15955,-1.49812 -0.11086,-1.03946 -0.17004,-1.66172 -0.36049,-3.79119 -0.0271,-0.30268 -0.0804,-1.10067 -0.11844,-1.7733 -0.0381,-0.67263 -0.0985,-1.52564 -0.13424,-1.89559 -0.0799,-0.8269 -0.0379,-5.1926 0.0562,-5.82975 0.0818,-0.55413 0.26739,-0.8223 0.70803,-1.02294 0.72998,-0.33239 1.97796,-0.23227 2.45578,0.197 0.11111,0.0998 0.39416,0.62608 0.39416,0.73285 0,0.0222 0.0651,0.18076 0.14469,0.35226 0.0796,0.17151 0.22196,0.50446 0.31637,0.73988 0.0944,0.23542 0.23261,0.56562 0.30707,0.73378 0.0745,0.16815 0.1955,0.44332 0.26896,0.61148 0.0735,0.16815 0.17611,0.40205 0.22812,0.51976 0.052,0.11771 0.1293,0.29656 0.17177,0.39746 0.10463,0.24857 0.235,0.54566 0.41591,0.9478 0.0832,0.18497 0.21257,0.47389 0.28746,0.64205 0.0749,0.16816 0.21212,0.47084 0.30497,0.67263 0.0928,0.20179 0.21775,0.47696 0.27758,0.61148 0.0598,0.13453 0.26535,0.57479 0.45671,0.97837 0.19136,0.40358 0.42597,0.91264 0.52137,1.13124 0.18055,0.41374 0.2618,0.55034 0.32735,0.55034 0.0404,0 0.0539,-0.0297 0.37362,-0.8255 0.10811,-0.26906 0.27217,-0.65429 0.3646,-0.85608 0.0924,-0.20179 0.21658,-0.47695 0.2759,-0.61148 0.16144,-0.36609 1.25879,-2.55889 1.31583,-2.62937 0.043,-0.0532 0.24254,-0.40063 0.45643,-0.79493 0.0365,-0.0673 0.18428,-0.31491 0.32844,-0.55033 0.14416,-0.23542 0.29508,-0.48289 0.33537,-0.54992 0.16367,-0.27226 1.00942,-1.50204 1.37741,-2.00285 0.4096,-0.55741 0.58985,-0.70605 1.05006,-0.86589 0.30988,-0.10763 1.31534,-0.13409 1.37584,-0.0362 0.0208,0.0336 0.0915,0.0611 0.15714,0.0611 0.22006,0 0.67116,0.25608 0.76261,0.43292 0.10546,0.20394 0.11093,0.39884 0.0269,0.95706 -0.14897,0.98925 -0.46055,3.41132 -0.60387,4.69426 -0.0338,0.30268 -0.0764,0.67416 -0.0947,0.8255 -0.0792,0.65636 -0.22112,3.11175 -0.28012,4.84599 -0.0654,1.92344 -0.0142,4.51618 0.13104,6.63209 0.0638,0.92884 0.0608,1.00351 -0.0466,1.18743 -0.2943,0.5039 -1.433,0.74234 -2.3716,0.49661 z" />
      <path
         style="fill:#a05a2c;stroke-width:0.23111108"
         d="M 330.63281 116.91602 C 328.83231 116.93359 327.03538 117.04266 325.31836 117.24414 C 321.1904 117.72855 320.40335 117.86987 315.8418 118.95703 C 314.5721 119.25962 310.50744 120.60256 309.48633 121.05664 C 308.97787 121.28273 308.09543 121.65832 307.52344 121.89062 C 305.87655 122.55953 301.33046 124.92111 299.43359 126.09375 C 297.66714 127.18577 293.17254 130.25762 292.96289 130.51562 C 292.89939 130.59386 292.53561 130.8962 292.1543 131.1875 C 289.08449 133.5325 283.94474 138.65766 281.0918 142.21875 C 279.99445 143.58851 279.0957 144.77799 279.0957 144.86133 C 279.0957 145.01659 280.20438 145.29038 283.25586 145.89062 C 284.94187 146.22228 287.39179 146.76432 289.0332 147.16797 C 289.87335 147.3746 290.65597 147.59 292.61523 148.15234 C 293.2508 148.33474 294.46875 148.67549 295.32031 148.91016 L 296.86914 149.33594 L 297.74609 148.68945 C 304.1456 143.98236 311.01605 140.67551 317.46094 139.19922 C 318.41425 138.98084 319.55706 138.71613 320.00195 138.60938 C 322.29492 138.05905 324.98937 137.87867 329.13086 137.99805 C 334.00123 138.13842 336.14351 138.43283 339.41602 139.41797 C 340.11515 139.62841 340.89423 139.85431 341.14844 139.91992 C 341.4028 139.98553 341.87167 140.14971 342.18945 140.2832 C 342.50731 140.4167 342.97427 140.60956 343.22852 140.71094 C 343.99572 141.01693 347.57268 142.75972 348.31445 143.18945 C 349.12365 143.65827 351.88294 145.52745 352.29102 145.88281 C 354.60375 147.89683 356.41479 149.62935 357.41992 150.79102 C 360.25309 154.06538 363.10367 158.85433 364.47852 162.65039 C 364.82396 163.60372 365.18782 164.59148 365.28711 164.8457 C 366.09593 166.91618 367.02962 171.84835 367.40039 176.00977 C 367.63774 178.67213 367.63863 179.93064 367.4043 182.48047 C 366.99365 186.96673 366.00467 192.51011 365.31445 194.19727 C 365.1285 194.65152 363.86039 198.68605 363.81836 198.95703 C 363.80702 199.03319 364.65452 200.40431 365.70312 202.00195 C 366.75179 203.5996 367.61133 204.97381 367.61133 205.05664 C 367.61133 205.13949 367.90397 205.64248 368.26367 206.17383 C 368.6231 206.70517 369.62831 208.43846 370.49609 210.02734 C 372.95252 214.52486 372.85008 214.40999 373.40234 213.32227 C 373.57998 212.9727 373.97389 212.27849 374.27734 211.78125 C 377.39073 206.67982 380.98585 197.61416 382.39648 191.30859 C 383.3871 186.88048 383.69192 184.84003 384.05078 180.21484 C 384.31421 176.8199 384.16418 168.15698 383.80664 166.11719 C 383.68418 165.41807 383.41068 163.85795 383.19922 162.65039 C 382.98794 161.44284 382.65972 159.8827 382.4707 159.18359 C 382.28173 158.48448 382.04886 157.5484 381.95312 157.10352 C 381.76681 156.23711 380.45167 152.20747 380.10547 151.44141 C 379.99057 151.1872 379.70972 150.51145 379.48242 149.93945 C 378.47635 147.40746 375.50006 141.97564 373.70898 139.4043 C 366.50517 129.06224 357.32524 122.49443 344.84766 118.75586 C 344.08911 118.52856 341.12705 117.89962 339.30078 117.57812 C 336.6434 117.11034 333.63365 116.88672 330.63281 116.91602 z M 167.29883 135.87695 C 163.02811 135.92104 158.53223 136.31151 155.56641 136.97461 C 155.05795 137.0883 154.27887 137.24869 153.83398 137.33203 C 151.90643 137.69305 146.67497 139.36947 143.96875 140.49414 C 141.95506 141.331 137.64129 143.52424 136.69531 144.19141 C 136.3578 144.42937 136.02127 144.62305 135.94727 144.62305 C 135.68497 144.62305 131.96423 147.26533 129.91406 148.90625 C 126.86882 151.34358 124.90441 153.21175 122.77344 155.70117 C 118.97123 160.14281 117.23569 162.69775 114.6582 167.64453 C 112.60025 171.59418 110.61567 177.23315 109.70703 181.7168 C 109.57815 182.35235 109.37122 183.34011 109.24805 183.91211 C 108.78086 186.07882 108.47828 191.91457 108.63086 195.81445 C 108.81001 200.39004 109.03005 202.23125 109.88672 206.33008 C 110.34329 208.51468 111.75108 213.22577 112.33789 214.53516 C 112.50873 214.91649 112.98958 216.05929 113.4082 217.07617 C 116.20381 223.86721 120.97423 230.77895 126.83008 236.52539 C 129.51063 239.15585 131.91384 241.21419 132.14844 241.08008 C 132.23385 241.03113 132.37313 240.6558 132.45703 240.24414 C 132.61804 239.45332 132.98112 238.18581 133.26953 237.41406 C 133.3644 237.15985 133.55877 236.53579 133.69922 236.02734 C 134.30372 233.83849 135.15251 231.14421 135.35547 230.77344 C 135.47641 230.55271 135.57617 230.21364 135.57617 230.01953 C 135.57617 229.82541 135.67354 229.48636 135.79297 229.26562 C 136.16676 228.57455 138.34961 222.72011 138.34961 222.4082 C 138.34961 222.24497 137.95392 221.65381 137.4707 221.0957 C 135.16821 218.43614 132.42024 213.8969 130.8418 210.14453 C 130.62788 209.63609 130.37331 209.06371 130.27734 208.87305 C 130.18134 208.68237 129.91944 207.90134 129.69531 207.13867 C 129.47119 206.376 129.20545 205.49356 129.10352 205.17578 C 128.88393 204.49081 128.5571 203.08083 128.13867 201.01562 C 127.72995 198.998 127.73276 191.42727 128.14258 189.57422 C 128.97562 185.8105 129.10713 185.32916 129.98047 182.87305 C 132.74701 175.09237 139.24466 167.46691 147.10547 162.77539 C 148.92134 161.69163 152.95986 159.64648 153.2832 159.64648 C 153.3569 159.64648 153.79759 159.47903 154.26172 159.27539 C 155.71438 158.638 155.98962 158.53651 157.53125 158.0625 C 160.24351 157.22855 161.63893 156.87305 162.20117 156.87305 C 162.5058 156.87305 162.85385 156.77885 162.97461 156.66406 C 163.20289 156.44712 163.40365 156.41506 168.16211 155.85352 C 173.24304 155.25392 179.78717 155.46007 185.26367 156.39258 C 188.97558 157.02463 193.80012 158.42784 194.52734 159.08594 C 194.87733 159.4027 195.00592 159.38788 195.81055 158.93555 C 196.98031 158.27792 202.99722 155.25586 203.13672 155.25586 C 203.19606 155.25586 204.11449 154.85414 205.17578 154.36523 C 206.23707 153.87633 207.70271 153.23466 208.43359 152.9375 C 209.16448 152.64035 209.76172 152.25907 209.76172 152.0918 C 209.76172 151.92451 209.68351 151.78488 209.58789 151.78125 C 209.49265 151.77764 208.94699 151.35452 208.375 150.83984 C 206.2842 148.95855 202.61249 146.3201 199.58203 144.52148 C 198.29253 143.75618 191.89644 140.6382 190.81055 140.24609 C 190.36566 140.08546 189.79327 139.8677 189.53906 139.76172 C 188.88279 139.48812 185.80316 138.49046 184.57031 138.15234 C 183.99832 137.99546 183.27087 137.78521 182.95312 137.68359 C 181.83599 137.32635 177.26065 136.52926 174.36523 136.1875 C 172.34305 135.94882 169.86126 135.8505 167.29883 135.87695 z M 257.48633 146.875 C 246.44119 146.87084 235.60854 148.28347 225.13086 151.09375 C 220.75111 152.26848 219.02288 152.81116 214.61523 154.40234 C 207.61925 156.92795 200.8545 160.11585 194.04688 164.09375 C 192.14982 165.20226 185.73171 169.32447 185.49609 169.58594 C 185.4326 169.65646 184.65345 170.2246 183.76367 170.84766 C 182.8739 171.47071 181.67966 172.35163 181.11133 172.80469 C 180.54304 173.25775 179.91899 173.75127 179.72461 173.90234 C 175.94531 176.83975 173.05975 179.44205 168.38867 184.12695 C 160.44293 192.09624 153.72195 200.9304 148.33008 210.49023 C 145.45492 215.58799 142.93851 220.7935 142.80078 221.92578 C 142.7354 222.46422 142.4076 223.21494 142.02148 223.70898 C 141.65487 224.17819 141.35352 224.70229 141.35352 224.875 C 141.35352 225.04769 141.2639 225.28745 141.1543 225.4082 C 141.04431 225.52896 140.84619 225.94093 140.71289 226.32227 C 140.57947 226.7036 140.14252 227.89807 139.74219 228.97852 C 139.3419 230.05896 138.80247 231.61909 138.54297 232.44531 C 138.28369 233.27154 137.99091 234.15593 137.89453 234.41016 C 137.49046 235.47632 137.18272 236.56137 136.02539 240.97656 C 135.77859 241.91843 135.57617 243.31611 135.57617 244.08203 C 135.57617 245.12187 135.46521 245.59492 135.14062 245.95117 C 134.5767 246.57027 133.62192 251.41366 133.01758 256.71289 C 132.90873 257.66622 132.69003 259.53838 132.53125 260.87305 C 132.14185 264.14981 132.14109 280.46592 132.53125 283.75195 C 133.23931 289.7311 133.65207 292.77505 133.95508 294.25781 C 134.08623 294.89878 134.3611 296.25655 134.56641 297.27344 C 134.94768 299.16175 135.17762 300.18617 135.56445 301.7207 C 135.68464 302.19737 135.93548 303.21194 136.12109 303.97461 C 136.76395 306.61549 137.4997 309.19063 137.9043 310.21484 C 138.00483 310.46905 138.25794 311.25011 138.4668 311.94922 C 138.67543 312.64833 138.93286 313.42742 139.03906 313.68164 C 139.3607 314.45159 139.99098 316.16215 140.35938 317.26367 C 140.5506 317.83567 140.86371 318.66839 141.05469 319.11328 C 141.24555 319.55817 141.49049 320.13054 141.59961 320.38477 C 143.40339 324.58743 145.88722 329.77103 147.35742 332.40234 C 148.66325 334.73946 148.92588 335.20675 149.24805 335.76953 C 149.79328 336.72206 153.95008 343.22662 154.65625 344.23242 C 155.43302 345.33869 155.56506 345.38243 159.03516 345.68555 C 162.47449 345.98602 164.3284 346.26968 167.4707 346.97656 C 168.93247 347.30538 170.46655 347.62939 170.88086 347.69727 C 171.29513 347.7653 171.69184 347.91396 171.76172 348.02734 C 171.83164 348.14035 172.09142 348.23242 172.33984 348.23242 C 172.58816 348.23242 172.97263 348.32487 173.19336 348.4375 C 173.41408 348.55013 174.32311 348.876 175.21289 349.16211 C 176.1027 349.44822 177.14208 349.81544 177.52344 349.97656 C 177.90475 350.13757 178.68582 350.45609 179.25781 350.68555 C 181.62402 351.6347 187.18098 354.63745 189.90625 356.43945 C 195.97016 360.449 201.38849 365.53934 205.89648 371.45898 C 206.9893 372.89403 207.73533 373.96421 208.0957 374.60938 L 208.5332 375.38867 L 248.0332 375.50391 C 269.75831 375.56816 293.07119 375.64636 299.83984 375.67773 C 311.67575 375.73249 312.15971 375.71778 312.54883 375.29492 C 312.77106 375.05265 313.31595 374.35015 313.75781 373.73438 C 317.12182 369.04572 322.08523 364.30722 327.5957 360.52539 C 331.48805 357.8541 336.77392 355.05795 340.57227 353.6582 C 341.1443 353.44731 341.81997 353.18461 342.07422 353.07617 C 342.84997 352.74509 346.63906 351.50588 347.62109 351.26172 C 348.12955 351.1351 348.96029 350.9153 349.46875 350.77148 C 350.51681 350.47479 351.33159 350.29974 354.41406 349.71289 L 356.58594 349.29883 L 358.31836 346.97461 C 360.11643 344.561 364.32618 338.25785 365.35156 336.44531 C 365.67509 335.87331 366.23332 334.88555 366.58984 334.25 C 366.94625 333.61444 367.4755 332.67837 367.76758 332.16992 C 368.63173 330.66578 371.95346 323.87689 372.47852 322.54102 C 372.74535 321.8625 373.12254 320.94489 373.31836 320.5 C 373.85777 319.2746 374.1941 318.44097 374.76367 316.91797 C 375.04903 316.1553 375.37241 315.32258 375.48047 315.06836 C 375.58856 314.81415 375.95357 313.72107 376.29297 312.64062 C 376.63237 311.5602 376.98892 310.46907 377.08594 310.21484 C 377.76826 308.4271 379.39844 302.41822 379.39844 301.68945 C 379.39844 301.37228 379.4917 301.05659 379.60547 300.98633 C 379.71923 300.91607 379.86512 300.46769 379.93164 299.99023 C 379.99778 299.51276 380.16918 298.60235 380.3125 297.9668 C 381.07441 294.58389 381.65575 290.78519 382.41797 284.21484 C 382.79842 280.93526 382.95622 266.70707 382.65234 263.06836 C 382.20069 257.65782 381.13588 250.19977 380.29297 246.54297 C 380.16106 245.97097 380.00049 245.11224 379.93359 244.63477 C 379.86707 244.15731 379.71885 243.71088 379.60547 243.64062 C 379.4917 243.57038 379.39844 243.25272 379.39844 242.93555 C 379.39844 242.2152 377.80635 236.33025 377.0918 234.41016 C 376.99731 234.15595 376.73893 233.37684 376.51953 232.67773 C 375.82289 230.45793 374.01013 225.61132 373.25195 223.94531 C 372.94657 223.27421 372.69531 222.67641 372.69531 222.61523 C 372.69531 222.39867 371.69582 220.26304 369.72461 216.26953 C 365.35359 207.41409 358.36774 196.95669 352.04688 189.80664 C 347.62694 184.80688 341.2458 178.67027 336.26562 174.63281 C 333.38455 172.29709 328.20401 168.54423 325.88281 167.11133 C 325.63639 166.9592 324.86125 166.48058 324.16211 166.04688 C 319.25103 163.00005 318.34625 162.49173 313.53125 160.08984 C 309.81295 158.23504 308.8898 157.80718 306.36719 156.75977 C 305.54094 156.4167 304.55317 156.00023 304.17188 155.83398 C 303.79052 155.66772 302.69749 155.2514 301.74414 154.91016 C 300.79083 154.5689 299.59645 154.13381 299.08984 153.94336 C 297.81469 153.46396 295.19823 152.6133 293.54102 152.13867 C 292.77838 151.92025 291.89392 151.65987 291.57617 151.56055 C 291.04364 151.3941 290.6388 151.2838 288.16797 150.63672 C 287.39713 150.43482 286.53702 150.23756 283.14062 149.48242 C 282.63219 149.36938 281.53913 149.15987 280.71289 149.01562 C 279.88669 148.87138 278.77514 148.65557 278.24219 148.53711 C 277.7092 148.41866 276.75208 148.32227 276.11523 148.32227 C 275.47842 148.32227 274.71967 148.21866 274.42773 148.09375 C 273.16454 147.55324 263.76303 146.87738 257.48633 146.875 z M 295.35742 190.73438 A 21.071428 21.071428 0 0 1 316.42773 211.80469 A 21.071428 21.071428 0 0 1 295.35742 232.87695 A 21.071428 21.071428 0 0 1 274.28516 211.80469 A 21.071428 21.071428 0 0 1 295.35742 190.73438 z M 222.85742 194.66211 A 21.071428 21.071428 0 0 1 243.92773 215.73438 A 21.071428 21.071428 0 0 1 222.85742 236.80469 A 21.071428 21.071428 0 0 1 201.78516 215.73438 A 21.071428 21.071428 0 0 1 222.85742 194.66211 z M 271.52148 235.29297 C 281.44998 235.27987 291.23014 236.57854 300.24219 239.14648 C 302.38616 239.7574 302.90872 239.91601 304.17188 240.33594 C 304.93453 240.58951 305.76532 240.88554 306.01953 240.99414 C 306.27389 241.10273 307.26349 241.47539 308.2168 241.82227 C 310.4768 242.64458 311.34345 243.03136 315.49609 245.06641 C 319.53104 247.04377 320.14626 247.39129 323.70117 249.7168 C 334.98015 257.09518 342.41481 265.67721 347.58203 277.28125 C 348.21578 278.70445 349.63059 283.20224 350.27148 285.83203 C 351.1387 289.39075 351.57073 295.74785 351.24414 300.12891 C 350.98033 303.66685 350.65826 306.18879 350.29297 307.55664 C 350.17429 308.00153 349.95166 308.88593 349.80078 309.52148 C 349.51845 310.70898 348.10738 315.16742 347.75195 315.99219 C 347.64235 316.2464 347.39519 316.81878 347.20508 317.26367 C 345.70457 320.77328 345.3305 321.52225 343.38477 324.89062 C 337.24583 335.51827 326.25134 346.01933 313.99414 352.96289 C 311.04278 354.63476 306.58483 356.88088 304.57227 357.71094 C 302.73368 358.46919 301.51454 358.98696 300.70508 359.34961 C 300.23302 359.56126 296.78008 360.8298 295.73633 361.17578 C 291.31054 362.64292 287.56846 363.66542 283.94922 364.39453 C 282.74166 364.63793 281.4419 364.90304 281.06055 364.98438 C 277.46932 365.75043 273.35665 366.31069 268.34961 366.7168 C 265.14276 366.97683 254.58374 366.96889 251.36328 366.70508 C 244.6869 366.15625 237.03263 364.80042 231.60156 363.20508 C 224.896 361.23538 221.05831 359.73886 215.42383 356.89258 C 204.23374 351.23988 195.75415 344.01963 189.37109 334.71289 C 185.94265 329.71405 183.0172 323.33121 181.77344 318.13086 C 180.53254 312.94239 180.31836 311.08956 180.31836 305.5918 C 180.31836 300.64983 180.42195 299.54093 181.33984 294.73047 C 181.78549 292.39472 183.40167 287.28789 184.35547 285.19922 C 184.60152 284.66039 184.80273 284.15964 184.80273 284.08594 C 184.80273 283.83071 187.5797 278.38729 188.03906 277.74219 C 188.29267 277.38578 188.5 277.03661 188.5 276.96484 C 188.5 276.89311 188.99388 276.09121 189.59766 275.18359 C 190.20144 274.27597 190.80063 273.36287 190.92773 273.1543 C 192.2071 271.05509 196.11153 266.42655 199.24219 263.29883 C 205.85133 256.69589 212.77507 251.69922 221.54883 247.20117 C 223.74466 246.07541 224.59316 245.67822 228.01953 244.17383 C 228.59152 243.92268 229.39622 243.56922 229.80664 243.38867 C 231.09055 242.82381 233.56935 241.91969 236.6875 240.87891 C 241.16991 239.38279 244.20563 238.58327 249.2832 237.5625 C 254.28371 236.55724 253.84303 236.62934 257.94922 236.12695 C 262.46518 235.57442 267.00853 235.29892 271.52148 235.29297 z M 153.01562 349.30078 C 149.61048 349.30019 146.20696 349.39593 145.05078 349.58789 C 141.91721 350.10818 138.00011 350.90485 136.96289 351.23242 C 136.64503 351.33296 135.91773 351.54467 135.3457 351.70508 C 123.30519 355.07683 111.71682 363.15915 104.70508 373.07617 C 102.66958 375.95511 102.29607 376.62831 102.29883 377.40625 C 102.30023 377.82211 102.05089 378.94118 101.74414 379.89453 C 101.43724 380.84784 101.07126 382.12292 100.93164 382.72852 C 100.28451 385.53606 100.82936 388.87731 102.49609 392.32031 C 104.60424 396.67486 109.61881 401.07634 115.81641 404.01367 C 116.83329 404.4956 117.8727 404.97188 118.12695 405.07227 C 118.92602 405.38786 119.72385 405.70899 120.32227 405.95508 C 122.70102 406.93326 127.77092 408.30043 130.83789 408.79102 C 131.7277 408.9335 132.82076 409.14068 133.26562 409.25195 C 134.15068 409.47306 135.16768 409.59168 140.19922 410.05664 C 143.77813 410.38735 150.2132 410.33763 154.75781 409.94531 C 160.96939 409.40926 166.84685 408.38713 171.85938 406.96875 C 173.99774 406.36365 174.61775 406.17588 175.9043 405.74414 C 181.9317 403.72149 187.68358 400.982 192.07422 398.04297 C 195.50214 395.74838 195.69408 395.59189 198.57227 392.72852 C 203.07183 388.25216 205.45457 383.59899 205.64453 378.91797 C 205.69329 377.71805 205.6206 377.29792 205.33789 377.07031 C 205.13531 376.90817 204.53889 376.12838 204.01172 375.33789 C 198.85021 367.59783 189.83591 359.86206 181.10547 355.68164 C 177.11296 353.76992 174.53785 352.79438 169.43359 351.25781 C 168.38258 350.94147 164.27036 350.12794 160.99805 349.58984 C 159.82821 349.39747 156.42079 349.30138 153.01562 349.30078 z M 367.37695 352.39453 C 364.35989 352.39681 361.36944 352.51259 359.67969 352.74023 C 355.38153 353.32077 353.89819 353.55215 353.05078 353.77344 C 352.60589 353.88947 351.35776 354.20163 350.27734 354.4668 C 348.29309 354.95375 345.00571 355.93971 344.1543 356.30273 C 343.89993 356.41121 342.70365 356.88753 341.49609 357.36133 C 339.49094 358.14804 334.53855 360.51116 333.98438 360.94531 C 333.85738 361.04471 333.23322 361.40964 332.59766 361.75781 C 328.63599 363.92798 323.38683 368.24797 319.80078 372.28711 C 317.33241 375.06741 317.22852 375.20845 317.22852 375.83789 C 317.22852 376.14668 317.14218 376.45257 317.03711 376.51758 C 316.93204 376.58259 316.66059 377.2913 316.43359 378.0918 C 316.20682 378.89234 315.91894 379.82782 315.79297 380.17188 C 315.5575 380.81532 315.69943 381.71983 316.49219 384.63086 C 318.4148 391.69045 325.89676 398.45246 336.17969 402.42188 C 337.38725 402.88798 338.53198 403.34931 338.72266 403.44531 C 338.91352 403.54131 340.16143 403.90438 341.49609 404.25391 C 342.83076 404.60351 344.16118 404.98639 344.45312 405.10352 C 344.7449 405.22068 345.23521 405.31641 345.54102 405.31641 C 345.84678 405.31641 346.33498 405.40967 346.62695 405.52344 C 347.70529 405.94417 352.13344 406.58491 356.40234 406.9375 C 359.31046 407.1775 369.73668 407.03415 371.88867 406.72461 C 372.77792 406.59648 374.38833 406.37343 375.46875 406.22656 C 377.53112 405.9465 378.825 405.72115 380.55273 405.3418 C 382.95863 404.81353 383.74013 404.62415 384.94531 404.2832 C 385.64441 404.08553 386.55645 403.86032 386.97266 403.78125 C 387.38882 403.70226 387.78556 403.54748 387.85352 403.4375 C 387.92155 403.32752 388.20943 403.23828 388.49414 403.23828 C 388.77912 403.23828 389.11167 403.15403 389.23242 403.05273 C 389.35299 402.95144 389.86654 402.73431 390.375 402.57031 C 394.06764 401.37874 400.02447 398.46537 403.5293 396.13477 C 408.86467 392.58689 412.98912 388.22411 415.21484 383.77734 C 415.95162 382.30522 416.13066 381.7301 416.01758 381.17969 C 415.19897 377.1966 411.85392 371.81601 407.31641 367.18359 C 406.24911 366.09396 403.93643 364.06942 403.10938 363.5 C 402.8433 363.31669 402.5733 363.09888 402.50977 363.01758 C 402.34611 362.80857 398.68978 360.45572 397.30859 359.66992 C 395.54896 358.66884 393.20021 357.5413 391.24219 356.75977 C 390.95608 356.64562 390.48912 356.45581 390.20312 356.33789 C 386.35011 354.74728 380.944 353.44307 375.23828 352.72852 C 373.4383 352.50309 370.39401 352.39225 367.37695 352.39453 z "
         transform="scale(0.26458333)"
         id="path1251" />
      <path
         style="fill:#ffffff;stroke-width:0.06114814"
         d="m 67.087249,136.4059 c 5.61645,-0.0331 16.554334,-0.0639 24.306384,-0.0684 7.75206,-0.005 17.066447,-0.025 20.698647,-0.0454 l 6.604,-0.0371 0.0212,-0.88665 c 0.0212,-0.88617 -0.082,-11.255 -0.14894,-14.95072 -0.034,-1.88009 -0.12351,-9.68197 -0.18704,-16.30818 l -0.0303,-3.16133 -0.25551,-0.0362 c -0.14053,-0.0199 -1.76893,-0.0282 -3.61866,-0.0184 -2.89735,0.0154 -3.36047,0.0301 -3.34383,0.10639 0.0403,0.18468 -0.50063,1.31124 -0.89704,1.86821 -0.7608,1.06894 -1.55413,1.82876 -2.79117,2.67323 -1.86285,1.27169 -3.85323,2.08419 -6.57342,2.68338 -0.939667,0.20699 -2.403057,0.39527 -3.730037,0.47992 -0.8676,0.0553 -1.33044,0.0508 -2.44593,-0.024 -0.7567,-0.0508 -1.63724,-0.13267 -1.95674,-0.18201 -0.3195,-0.0494 -0.69097,-0.10644 -0.8255,-0.12689 -0.13452,-0.0204 -0.34778,-0.0632 -0.47389,-0.0951 -0.12612,-0.0319 -0.33938,-0.0855 -0.4739,-0.11914 -0.56521,-0.1413 -0.7286,-0.18638 -1.22297,-0.33747 -1.71215,-0.52324 -3.38866,-1.38629 -4.52496,-2.3294 -1.37737,-1.14319 -2.20379,-2.39019 -2.54233,-3.83613 -0.0878,-0.37505 -0.16868,-0.71294 -0.17971,-0.75087 -0.0282,-0.0969 -8.610014,-0.15762 -18.892624,-0.13361 l -8.19264,0.0191 -0.12351,0.46977 c -0.0679,0.25837 -0.14414,0.48996 -0.16936,0.51466 -0.0252,0.0247 -0.0462,0.0885 -0.0466,0.14172 -0.001,0.14019 -0.4507,0.99965 -0.7834,1.49768 -0.33271,0.498 -1.44153,1.64296 -2.05922,2.12632 -1.15263,0.90196 -2.9092,1.86605 -4.37209,2.39959 -0.25223,0.092 -0.51364,0.19161 -0.58091,0.22136 -0.25175,0.11135 -1.42473,0.4607 -2.06375,0.61464 -0.12611,0.0304 -0.34625,0.0837 -0.48918,0.11851 -1.59259,0.38776 -4.04806,0.67097 -5.81474,0.67068 -1.68307,0 -3.38816,-0.17576 -4.90147,-0.50446 -0.30269,-0.0657 -0.64002,-0.13355 -0.74964,-0.15069 -0.10961,-0.0171 -0.21442,-0.0556 -0.23291,-0.0855 -0.0185,-0.0299 -0.0854,-0.0544 -0.1488,-0.0544 -0.1074,0 -1.28677,-0.36408 -1.55917,-0.48132 -0.0673,-0.029 -0.19109,-0.0823 -0.27517,-0.11843 -1.65794,-0.71348 -2.55887,-1.28334 -3.53564,-2.23638 -0.94081,-0.91793 -1.52455,-1.93162 -1.78242,-3.09524 -0.0659,-0.29727 -0.061,-1.31025 0.01,-1.98731 l 0.0191,-0.18344 -3.92876,-0.0157 -3.92877,-0.0157 7.1e-4,2.03363 c 3.7e-4,1.11849 0.0296,4.82656 0.0648,8.24016 0.0353,3.41359 0.092,10.05887 0.12613,14.76728 0.0341,4.7084 0.0749,9.07291 0.0906,9.6989 l 0.0286,1.13816 19.33555,-0.0237 c 10.63455,-0.013 23.93083,-0.0507 29.54729,-0.0838 z"
         id="path1277" />
      <path
         id="path1255"
         style="fill:#ff8080;stroke-width:0.06114814"
         d="m 36.644709,117.33439 c 1.01315,-0.49933 1.83217,-1.22996 2.25826,-2.01454 0.78993,-1.45453 0.36621,-2.72686 -1.06573,-3.20012 -0.46325,-0.1531 -1.60403,-0.22243 -1.69886,-0.10324 -0.10589,0.1331 -0.2735,2.1976 -0.3638,4.481 l -0.0457,1.1552 0.21794,-0.0409 c 0.11987,-0.0225 0.43391,-0.14733 0.69788,-0.27742 z m 1.99392,13.12009 c 0.4603,-0.29936 1.02549,-0.81484 1.31679,-1.20099 0.17946,-0.23789 0.46933,-0.79434 0.58931,-1.13124 0.0599,-0.16816 0.13066,-0.36077 0.15729,-0.42803 0.2795,-0.70617 0.27348,-2.51769 -0.012,-3.60775 -0.10376,-0.39617 -0.48557,-1.38417 -0.64986,-1.68157 -0.66683,-1.20719 -1.76658,-2.25588 -2.66062,-2.53709 -0.34634,-0.10894 -0.45836,-0.10489 -1.11096,0.0402 l -0.36689,0.0816 0.007,0.30574 c 0.0189,0.83984 0.24177,2.7557 0.4588,3.94406 0.0338,0.18497 0.0859,0.47389 0.11583,0.64205 0.11169,0.62763 0.2508,1.3535 0.30761,1.60514 0.0323,0.14293 0.0848,0.37682 0.1167,0.51976 0.12211,0.54691 0.50339,2.03875 0.5509,2.15547 0.0274,0.0673 0.08,0.23236 0.11702,0.36689 0.2336,0.84971 0.39459,1.25354 0.49973,1.25354 0.0328,0 0.28632,-0.14747 0.56347,-0.32772 z m -2.79809,2.79923 c -0.79562,-0.11362 -1.29316,-0.27998 -1.5483,-0.51767 -0.11228,-0.1046 -0.53471,-0.91612 -0.83194,-1.59821 -0.18932,-0.43446 -0.58054,-1.61672 -0.79553,-2.4041 -0.11938,-0.43721 -0.24477,-0.87942 -0.27865,-0.98271 -0.0339,-0.10328 -0.0616,-0.25988 -0.0616,-0.34799 0,-0.0881 -0.0275,-0.17722 -0.0611,-0.198 -0.0336,-0.0208 -0.0611,-0.10988 -0.0611,-0.198 0,-0.0881 -0.0266,-0.24471 -0.0591,-0.34799 -0.0645,-0.20496 -0.313,-1.50575 -0.4272,-2.23625 -0.0394,-0.25224 -0.0958,-0.60995 -0.12536,-0.79493 -0.56411,-3.53493 -0.5474,-8.38297 0.0407,-11.80159 0.0492,-0.28587 0.1051,-0.61607 0.12427,-0.73378 0.0702,-0.43083 0.38496,-0.69795 1.08878,-0.92391 0.30235,-0.0971 5.18616,-0.0903 5.90079,0.008 2.063,0.28431 3.4916,0.9072 4.36159,1.90173 0.24298,0.27777 0.34031,0.44025 0.61445,1.0257 0.10194,0.21773 0.0874,1.5077 -0.0207,1.84062 -0.10481,0.32266 -0.45812,1.00295 -0.67208,1.29407 -0.44597,0.6068 -1.79632,1.76354 -2.35684,2.01893 -0.17722,0.0807 -0.2015,0.22281 -0.0461,0.26977 0.0589,0.0178 0.45045,0.20184 0.8702,0.40902 1.85263,0.91439 3.16547,2.36448 3.77665,4.17148 0.50712,1.49934 0.50895,3.06403 0.005,4.58612 -0.20788,0.62832 -0.71426,1.59234 -1.13094,2.15303 -1.30067,1.75022 -3.276,2.88212 -5.74147,3.28998 -0.54549,0.0902 -2.21687,0.16615 -2.56465,0.11648 z m 17.71961,-15.91859 c 0.53075,-0.0354 1.01469,-0.091 1.0754,-0.12351 0.10244,-0.0548 0.10482,-0.0934 0.033,-0.53616 -0.14033,-0.86481 -0.46298,-1.71959 -0.9227,-2.44441 -0.25907,-0.40845 -0.82394,-1.01765 -1.10424,-1.19089 l -0.21951,-0.13566 -0.171,0.20484 c -0.39305,0.47079 -0.69718,1.3905 -0.87994,2.661 -0.0567,0.39421 -0.12404,1.62816 -0.0907,1.66214 0.0336,0.0342 0.79715,0.002 2.2797,-0.0974 z m 10.41936,3.3683 0.41722,-0.0412 -0.0127,-0.21402 c -0.15032,-2.52786 -0.12015,-2.20133 -0.20336,-2.20133 -0.0348,0 -0.16116,0.21325 -0.28087,0.4739 -0.11972,0.26064 -0.31196,0.67376 -0.4272,0.91805 -0.31262,0.66269 -0.45792,1.05554 -0.41569,1.12388 0.0217,0.0351 0.13705,0.0442 0.27156,0.0215 0.12862,-0.0217 0.4216,-0.0581 0.65107,-0.0808 z m -10.12958,13.83534 c -1.76689,-0.39992 -3.22395,-1.51422 -4.54102,-3.47277 -0.49886,-0.74184 -1.24417,-2.21118 -1.60173,-3.15776 -0.1588,-0.42039 -0.31209,-0.81938 -0.34064,-0.88664 -0.12668,-0.29849 -0.51533,-1.66339 -0.72258,-2.53765 -0.2981,-1.25748 -0.51777,-2.65878 -0.62787,-4.00521 -0.0758,-0.92674 -0.0421,-3.29471 0.0579,-4.06635 0.25765,-1.98892 0.80904,-3.29756 1.81203,-4.30055 1.26142,-1.26142 3.43145,-1.72719 5.84038,-1.25355 1.15377,0.22685 2.26689,0.79013 3.04773,1.54226 1.0363,0.99818 1.54233,2.04919 2.01993,4.19529 0.0337,0.15134 0.0905,0.4043 0.12616,0.56212 0.1338,0.59142 0.0615,0.9042 -0.28122,1.21652 -0.41076,0.37432 -1.00795,0.50907 -3.07816,0.69457 -0.2186,0.0196 -0.70014,0.0631 -1.07009,0.0966 -0.36995,0.0335 -1.22296,0.10417 -1.89559,0.15697 -0.67263,0.0528 -1.24644,0.11861 -1.27513,0.14624 -0.14351,0.13823 0.16442,2.8494 0.51056,4.49534 0.0354,0.16816 0.0811,0.4096 0.10166,0.53654 0.0205,0.12693 0.0612,0.2455 0.0902,0.26348 0.0291,0.018 0.0529,0.091 0.0529,0.16233 0,0.0713 0.0269,0.21414 0.0597,0.31742 0.0328,0.10328 0.16741,0.53292 0.29907,0.95476 0.31066,0.99542 0.58508,1.66599 1.11245,2.71847 0.42265,0.84348 1.18481,2.05417 1.31824,2.094 0.0376,0.0112 0.12971,-0.13889 0.20469,-0.33359 0.075,-0.1947 0.1602,-0.40904 0.18937,-0.4763 0.0292,-0.0673 0.12476,-0.35619 0.21244,-0.64206 0.0877,-0.28586 0.18175,-0.58855 0.20907,-0.67263 0.0273,-0.0841 0.0847,-0.27669 0.12752,-0.42803 0.0428,-0.15134 0.14093,-0.48154 0.21805,-0.73378 0.0771,-0.25224 0.19942,-0.66499 0.27177,-0.91722 0.0724,-0.25224 0.15207,-0.51365 0.17714,-0.58091 0.0251,-0.0673 0.26728,-0.78972 0.53825,-1.60545 l 0.49267,-1.48316 -0.16228,-0.0346 c -0.67082,-0.14304 -1.11728,-0.37854 -1.25616,-0.66259 -0.0937,-0.19157 -0.0749,-0.30708 0.0788,-0.48554 0.19934,-0.23142 0.95385,-0.50345 1.57203,-0.56678 0.21439,-0.022 0.41453,-0.0706 0.44476,-0.10798 0.0302,-0.0374 0.18393,-0.38449 0.34157,-0.77125 0.15765,-0.38676 0.32449,-0.78576 0.37078,-0.88665 0.0463,-0.10089 0.19131,-0.43109 0.3223,-0.73378 0.13098,-0.30268 0.31773,-0.72919 0.415,-0.94779 0.29622,-0.66578 1.44939,-2.9244 1.8576,-3.63832 0.21153,-0.36994 0.43945,-0.76894 0.50651,-0.88665 0.48972,-0.85969 1.35439,-2.20352 2.13616,-3.31992 0.56192,-0.80245 0.69029,-0.90565 1.42567,-1.14613 0.3321,-0.1086 1.87293,-0.10778 2.20133,0.001 0.81392,0.27004 1.00947,0.44979 1.08288,0.99542 0.0682,0.5066 0.15855,1.76729 0.22902,3.1943 0.14036,2.84242 0.38773,5.92513 0.61336,7.64352 0.0309,0.23542 0.0724,0.60689 0.0922,0.8255 0.0198,0.2186 0.0615,0.57632 0.0925,0.79492 0.0311,0.21861 0.0864,0.6176 0.12291,0.88665 0.0759,0.55933 0.16821,1.13065 0.39511,2.44593 0.11734,0.68021 0.20878,1.15715 0.27548,1.43698 0.0281,0.11771 0.0807,0.3516 0.11694,0.51976 0.21703,1.00668 0.46234,1.93035 0.83633,3.14913 0.15997,0.52129 0.30264,1.10839 0.31705,1.30468 0.0228,0.30996 0.007,0.37681 -0.11616,0.50842 -0.30565,0.32535 -1.04488,0.53346 -2.14051,0.60261 -1.37558,0.0868 -2.61613,-0.24048 -2.80618,-0.74034 -0.0308,-0.0809 -0.1142,-0.27501 -0.18544,-0.43139 -0.34428,-0.75573 -0.8898,-2.43789 -1.16688,-3.59818 -0.37656,-1.57679 -0.72362,-3.72481 -0.88426,-5.47276 -0.0232,-0.25224 -0.0647,-0.47351 -0.0922,-0.49171 -0.0275,-0.0182 -0.25038,-0.0115 -0.49517,0.015 -1.25458,0.13557 -1.55965,0.17255 -1.71207,0.20752 -0.14127,0.0324 -0.19541,0.11312 -0.3594,0.53586 -0.29025,0.7482 -0.54094,1.43325 -0.67441,1.84295 -0.0657,0.20179 -0.14314,0.42192 -0.17201,0.48918 -0.0824,0.19197 -0.15196,0.4029 -0.58483,1.7733 -1.34942,4.27206 -1.66163,5.08889 -2.24554,5.87493 -0.45957,0.61865 -1.03666,1.01338 -1.79,1.22434 -0.51084,0.14306 -2.11597,0.17386 -2.65869,0.051 z m 24.37545,-13.64353 c 1.174044,-0.48934 1.872954,-0.94957 2.718104,-1.78987 1.29546,-1.28802 1.88941,-2.52337 1.88941,-3.92975 0,-0.71831 -0.0924,-1.07812 -0.38853,-1.51298 -0.24369,-0.35786 -0.42605,-0.51519 -0.83443,-0.71995 -0.32989,-0.16539 -0.35676,-0.16854 -1.40641,-0.16477 -1.1307,0.004 -1.977624,0.0665 -2.155474,0.15889 -0.0785,0.0408 -0.10701,0.13102 -0.10701,0.33888 0,0.15582 -0.0258,0.45065 -0.0573,0.65519 -0.1546,1.00337 -0.36933,4.50936 -0.37013,6.04339 -6.2e-4,0.94228 0.0146,1.14653 0.085,1.14653 0.0471,0 0.32913,-0.1015 0.62676,-0.22556 z m -3.47234,13.77351 c -0.68092,-0.14927 -1.07322,-0.50026 -1.30836,-1.17052 -0.14012,-0.39945 -0.23174,-0.8242 -0.43418,-2.01282 -0.0516,-0.30268 -0.11787,-0.68792 -0.14738,-0.85607 -0.25141,-1.4327 -0.4649,-3.2311 -0.60248,-5.0753 -0.12044,-1.61416 -0.20877,-4.46798 -0.16663,-5.38302 0.0232,-0.50338 0.0672,-1.46557 0.0978,-2.1382 0.10016,-2.20002 0.25412,-3.92065 0.5526,-6.17596 0.1655,-1.25048 0.17792,-1.2844 0.56555,-1.54596 0.53143,-0.35858 1.16999,-0.49996 2.26478,-0.50144 0.83458,-0.001 1.44849,0.10085 1.93824,0.32198 0.30524,0.13783 0.67263,0.45222 0.67263,0.5756 0,0.0439 0.0344,0.0818 0.0764,0.0844 0.23121,0.014 1.018854,-0.018 1.621994,-0.066 0.49905,-0.0397 1.00573,-0.0299 1.83444,0.0355 1.74285,0.13748 2.30568,0.24756 3.3463,0.65454 1.50526,0.58869 2.40995,1.43686 2.81286,2.63711 0.20098,0.59868 0.21367,1.54966 0.0303,2.27362 -0.16157,0.63808 -0.63792,1.58207 -1.12347,2.22641 -0.3695,0.49032 -1.31319,1.44479 -1.85604,1.87723 -0.8573,0.68293 -2.65448,1.67264 -3.74661,2.06326 -0.25223,0.0902 -0.50639,0.18984 -0.56478,0.22138 -0.0584,0.0316 -0.14469,0.0574 -0.19175,0.0574 -0.0471,0 -0.15654,0.0368 -0.24329,0.0818 l -0.15772,0.0818 0.28832,0.30042 c 1.64724,1.71637 2.55106,2.78109 3.96779,4.67409 0.54186,0.72403 1.18497,1.53577 1.42914,1.80387 0.68666,0.75399 0.77002,0.94196 0.58036,1.30871 -0.34802,0.673 -1.7381,1.01616 -3.12336,0.77105 -1.62314,-0.28719 -2.34212,-0.87059 -4.12149,-3.34424 -0.832244,-1.15697 -1.254854,-1.6745 -1.276324,-1.563 -0.0263,0.13637 0.24512,3.41166 0.38359,4.62962 0.0172,0.15135 0.0762,0.73452 0.13112,1.29594 l 0.0998,1.02076 -0.13929,0.22539 c -0.1694,0.27408 -0.61913,0.49652 -1.24532,0.61595 -0.52832,0.10075 -1.77542,0.0978 -2.24569,-0.005 z m 25.721091,-12.15201 c 0.0696,-0.0644 0.1261,-2.12972 0.0583,-2.12972 -0.0241,0 -0.32304,0.26829 -0.664357,0.5962 -0.63789,0.61282 -1.2597,1.07667 -1.89769,1.41559 -0.19998,0.10624 -0.37437,0.20393 -0.38752,0.21709 -0.0525,0.0525 2.834367,-0.0465 2.891307,-0.0992 z m -3.154037,10.20115 c 0.46841,-0.27273 1.03857,-0.82054 1.37335,-1.31953 0.3398,-0.50645 0.77694,-1.41863 0.92532,-1.93084 0.0584,-0.20179 0.12723,-0.42192 0.15283,-0.48918 0.253307,-0.66551 0.610817,-2.86035 0.610817,-3.75001 v -0.45577 l -0.993657,0.0333 c -1.15664,0.0388 -1.57603,0.11245 -2.61408,0.45911 -1.63575,0.54625 -2.7253,1.70884 -2.97287,3.17217 -0.0845,0.49938 -0.0849,0.61107 -0.003,1.03952 0.18068,0.95108 0.55248,1.64292 1.28594,2.39288 0.61666,0.63053 1.48025,1.15036 1.78211,1.07273 0.0673,-0.0173 0.27143,-0.11829 0.4537,-0.22441 z m -1.46264,2.42844 c -1.82941,-0.26199 -2.94056,-0.66977 -4.28007,-1.57074 -0.55063,-0.37035 -1.47171,-1.27618 -1.81659,-1.7865 -0.27249,-0.4032 -0.69078,-1.19361 -0.69078,-1.30529 0,-0.0386 -0.0248,-0.11792 -0.0552,-0.17632 -0.16381,-0.31516 -0.21998,-0.70919 -0.21998,-1.54316 0,-0.7822 0.0172,-0.93347 0.14572,-1.28411 0.68667,-1.87294 2.26374,-3.15464 4.96969,-4.0389 0.80285,-0.26236 0.8117,-0.27847 0.17922,-0.32622 -1.01907,-0.0769 -1.5215,-0.20476 -2.25544,-0.57384 -1.67575,-0.84272 -2.607,-2.5914 -2.95451,-5.54795 -0.0838,-0.71274 -0.0847,-3.89017 -0.001,-4.90009 0.0502,-0.60871 0.0734,-0.70021 0.2186,-0.86321 0.40096,-0.45001 1.26915,-0.68783 2.51098,-0.68783 1.22834,0 2.06389,0.21768 2.50143,0.65166 l 0.17525,0.17384 -0.054,1.16182 c -0.10464,2.2502 -0.0103,4.26915 0.27043,5.78581 0.18709,1.01085 0.58972,2.01057 0.80973,2.01057 0.13898,0 1.10428,-0.91654 1.69487,-1.60924 1.08305,-1.27033 2.42339,-3.26721 3.557767,-5.3005 0.40645,-0.72853 1.38164,-2.74974 1.50463,-3.11855 0.29794,-0.89346 0.85267,-1.16037 2.4116,-1.16037 0.92982,0 1.30532,0.063 1.79783,0.30137 0.44787,0.21681 0.48888,0.37689 0.33956,1.32556 -0.0681,0.43284 -0.14878,0.92456 -0.17921,1.09272 -0.0304,0.16815 -0.0839,0.56715 -0.11882,0.88664 -0.0595,0.54501 -0.0881,0.86583 -0.25124,2.82422 -0.0746,0.89563 -0.20131,4.46715 -0.20784,5.85882 l -0.004,0.9478 0.38425,-0.0213 c 0.43464,-0.0241 1.28472,0.079 1.78651,0.21672 0.89782,0.24637 1.31801,0.76532 0.9739,1.20279 -0.34683,0.44093 -1.24243,0.7376 -2.83799,0.94013 l -0.36596,0.0464 -0.0433,0.2446 c -0.0238,0.13452 -0.0448,0.41606 -0.0468,0.62563 -0.004,0.39445 -0.056,0.79434 -0.25451,1.94259 -0.10639,0.61559 -0.14319,0.79536 -0.29414,1.43698 -0.10505,0.44654 -0.45141,1.39695 -0.70388,1.93143 -0.85594,1.81207 -2.25343,3.03322 -4.19318,3.66411 -0.285857,0.093 -0.574787,0.18993 -0.642047,0.21546 -0.17064,0.0648 -0.69209,0.16884 -1.37584,0.27461 -0.51748,0.08 -1.96758,0.11155 -2.38477,0.0518 z" />
      <path
         style="fill:#d38d5f;stroke-width:0.06114814"
         d="m 70.266949,96.111791 c 1.05904,-0.0537 2.2691,-0.1768 3.05741,-0.31106 0.16815,-0.0286 0.47084,-0.0791 0.67263,-0.11217 0.20178,-0.0331 0.54574,-0.1002 0.76435,-0.14921 0.2186,-0.049 0.60384,-0.13551 0.85607,-0.19222 0.25224,-0.0567 0.50639,-0.12812 0.56479,-0.1587 0.0584,-0.0306 0.17372,-0.0556 0.25627,-0.0556 0.0825,0 0.1671,-0.0275 0.18789,-0.0612 0.0208,-0.0336 0.0846,-0.0611 0.14175,-0.0611 0.14871,0 1.44446,-0.42813 2.294964,-0.75828 0.86989,-0.33768 0.90994,-0.35547 2.1494,-0.95475 0.94519,-0.45702 1.29022,-0.64597 1.97108,-1.07944 0.17605,-0.11208 0.3325,-0.20379 0.34768,-0.20379 0.0999,0 1.75449,-1.212265 2.45079,-1.795606 0.6298,-0.527617 2.18833,-2.120318 2.70072,-2.759928 1.02367,-1.277819 1.95963,-2.891188 2.42995,-4.188648 0.0914,-0.252236 0.19205,-0.506392 0.22359,-0.564788 0.0315,-0.0584 0.0573,-0.148205 0.0573,-0.199563 0,-0.05136 0.0259,-0.141161 0.0576,-0.199563 0.0558,-0.102907 0.22988,-0.794015 0.37328,-1.482011 0.32071,-1.538757 0.24224,-3.881091 -0.18232,-5.442185 -0.032,-0.11771 -0.0841,-0.310327 -0.11576,-0.428037 -0.0606,-0.225539 -0.11177,-0.379174 -0.19331,-0.580908 -0.0272,-0.06726 -0.0837,-0.218604 -0.12565,-0.336314 -0.0419,-0.117711 -0.16853,-0.415967 -0.28134,-0.662791 -0.11281,-0.246831 -0.20512,-0.45778 -0.20512,-0.468786 0,-0.01101 -0.14569,-0.276842 -0.32376,-0.590746 -0.9104,-1.604858 -2.12265,-3.022547 -3.71201,-4.341115 -0.47105,-0.390786 -1.7467,-1.275464 -2.24366,-1.555999 -0.22896,-0.129249 -0.49884,-0.282902 -0.59973,-0.341464 -0.48655,-0.282382 -1.59634,-0.80178 -2.38478,-1.116106 -0.23542,-0.09386 -0.48307,-0.193601 -0.55033,-0.221656 -0.40472,-0.168818 -1.37443,-0.462305 -1.42333,-0.430783 -0.032,0.02061 -0.11969,0.243841 -0.19495,0.496077 -0.0753,0.252236 -0.15928,0.513644 -0.18669,0.580907 -0.0274,0.06726 -0.063,0.17733 -0.0791,0.244593 -0.0331,0.138561 -0.510604,1.525052 -0.589604,1.712147 -0.0284,0.06726 -0.0863,0.218604 -0.12862,0.336315 -0.0423,0.11771 -0.12469,0.324085 -0.183,0.458611 -0.0583,0.134526 -0.20761,0.492242 -0.33178,0.794926 -0.37169,0.906074 -1.013,2.228317 -1.46807,3.026833 -0.38165,0.669694 -1.35583,2.152237 -1.64741,2.507074 -0.12436,0.151341 -0.27053,0.3302 -0.32483,0.397463 -0.37977,0.470498 -0.92132,1.03602 -1.3879,1.449345 -0.51868,0.45948 -1.48877,1.149451 -1.61611,1.149451 -0.0326,0 -0.0684,0.02064 -0.0796,0.04586 -0.0112,0.02522 -0.19924,0.125329 -0.41784,0.222457 -0.53259,0.236631 -0.60427,0.26153 -1.35442,0.470486 -0.25796,0.07185 -0.28767,0.0994 -0.32036,0.296966 -0.0602,0.364155 -0.0426,0.604382 0.0802,1.094227 0.0647,0.257838 0.14603,0.790628 0.18085,1.183969 0.0348,0.393342 0.0894,0.764817 0.12119,0.8255 0.0318,0.06068 0.15829,0.328084 0.28102,0.594232 0.50339,1.091622 1.42628,2.12513 2.29699,2.572288 1.52135,0.781302 3.04423,0.385906 3.93113,-1.020654 0.42166,-0.668735 0.63738,-1.421976 0.70781,-2.47148 0.0428,-0.63849 0.0627,-0.726495 0.18712,-0.827193 0.27324,-0.221259 0.62464,-0.117154 0.73518,0.217803 0.0761,0.230584 -0.004,1.453522 -0.12439,1.901408 -0.41015,1.524637 -1.18213,2.596374 -2.24698,3.119497 -0.64715,0.317915 -0.65447,0.320386 -1.19321,0.402764 -0.3802,0.05814 -0.5875,0.05686 -1.00895,-0.0062 -0.29173,-0.04368 -0.55656,-0.10282 -0.58851,-0.131432 -0.0319,-0.02861 -0.0942,-0.05202 -0.13825,-0.05202 -0.12933,0 -0.62689,-0.245229 -1.08777,-0.536129 -0.66475,-0.419568 -1.46566,-1.249122 -1.91802,-1.986611 -0.15932,-0.259746 -0.2243,-0.253019 -0.28638,0.02964 -0.0237,0.107817 -0.0639,0.238203 -0.0893,0.289757 -0.0254,0.05155 -0.0734,0.162519 -0.10665,0.246598 -0.50443,1.2764 -1.33263,2.413444 -2.24377,3.080472 -0.6135,0.44914 -0.67819,0.485566 -1.25655,0.707753 -0.60114,0.230926 -1.42541,0.308902 -2.0486,0.193791 -0.97955,-0.180937 -1.92259,-0.933958 -2.42147,-1.933553 -0.26134,-0.523618 -0.33682,-0.724104 -0.48342,-1.284111 -0.092,-0.351357 -0.14663,-1.571379 -0.0951,-2.121804 0.0364,-0.38889 0.0711,-0.49711 0.20037,-0.62642 0.20159,-0.201593 0.44211,-0.202186 0.63059,-0.0015 0.14258,0.151758 0.1451,0.17459 0.12984,1.177102 -0.0177,1.159846 0.0745,1.668115 0.43454,2.396433 0.23929,0.484109 0.81664,1.085404 1.22374,1.274486 1.15374,0.53589 2.46718,0.175269 3.62697,-0.995834 1.01115,-1.021015 1.58128,-2.223799 1.85749,-3.918753 0.0619,-0.379999 0.0558,-0.48595 -0.0511,-0.886648 -0.0668,-0.250297 -0.14831,-0.747242 -0.18114,-1.104329 -0.0353,-0.384506 -0.10238,-0.731809 -0.16439,-0.85172 -0.0758,-0.146585 -0.0951,-0.283844 -0.0698,-0.497282 l 0.0349,-0.294807 h -0.28323 c -0.15578,0 -0.37462,-0.02752 -0.4863,-0.06115 -0.1117,-0.03363 -0.30626,-0.09048 -0.43238,-0.126338 -0.32913,-0.09357 -0.41814,-0.130172 -0.96105,-0.395237 -0.77181,-0.376826 -1.35221,-0.803151 -2.07869,-1.526888 -1.46682,-1.461288 -2.68574,-3.447679 -3.70675,-6.040691 -0.24118,-0.612502 -0.46076,-1.168675 -0.48795,-1.235938 -0.0749,-0.18523 -0.27107,-0.792003 -0.4547,-1.406407 -0.0905,-0.302684 -0.18686,-0.619124 -0.21422,-0.703203 -0.0274,-0.08408 -0.0661,-0.203373 -0.0861,-0.265096 -0.0332,-0.102294 -0.0729,-0.09201 -0.44906,0.11617 -2.71143,1.50069 -5.11087,3.532337 -6.7116,5.682832 -0.10014,0.134526 -0.20132,0.259024 -0.22485,0.276659 -0.0235,0.01763 -0.26695,0.389104 -0.54094,0.8255 -0.76358,1.216157 -1.42469,2.63502 -1.71593,3.682683 -0.0304,0.109303 -0.0846,0.301919 -0.12046,0.428037 -0.5714,2.009163 -0.57341,4.657923 -0.005,6.680435 0.40706,1.448593 1.19917,3.048577 2.11618,4.274475 0.13594,0.181733 0.3418,0.456899 0.45748,0.611482 0.24553,0.328133 1.75637,1.852789 2.11331,2.132641 0.13453,0.10548 0.45097,0.3531 0.70321,0.55028 0.39989,0.3126 1.67743,1.17531 1.74046,1.17531 0.0125,0 0.2245,0.11781 0.47111,0.26179 0.5733,0.33474 2.11402,1.08347 2.22952,1.08347 0.033,0 0.37462,0.142 0.57305,0.23818 0.0504,0.0245 0.42193,0.15038 0.8255,0.27984 0.40358,0.12945 0.78882,0.25467 0.85608,0.27824 0.26259,0.092 0.57676,0.17779 1.22296,0.33377 0.36995,0.0893 0.77213,0.18802 0.89374,0.21937 0.12161,0.0314 0.29852,0.057 0.39312,0.057 0.0946,0 0.25652,0.026 0.3598,0.0577 0.43712,0.13443 1.8948,0.31011 3.04178,0.36658 1.39199,0.0685 1.91831,0.0692 3.19967,0.004 z"
         id="path1245" />
      <path
         style="fill:#ffffff;stroke-width:0.06114814"
         d="m 61.537639,66.876921 c 0.58086,-0.627398 1.33739,-1.07507 2.61579,-1.547892 0.23614,-0.08733 0.47528,-0.158789 0.53144,-0.158789 0.0562,0 0.11723,-0.02448 0.13572,-0.05439 0.0185,-0.02991 0.1233,-0.06904 0.23291,-0.08693 0.10962,-0.0179 0.50261,-0.100949 0.87333,-0.184557 1.22931,-0.277234 3.02202,-0.469887 4.36787,-0.469392 1.50948,6.12e-4 3.55247,0.238655 4.72652,0.550853 0.12612,0.03354 0.31873,0.08481 0.42803,0.113938 0.48627,0.129597 1.33876,0.447457 1.67069,0.622946 0.54702,0.289194 0.88013,0.257104 0.96807,-0.09326 0.0767,-0.305747 -0.0526,-0.451267 -0.65183,-0.733154 -0.31166,-0.146621 -0.80023,-0.341457 -1.08571,-0.432965 -0.28547,-0.09151 -0.57407,-0.188208 -0.64134,-0.214887 -0.0673,-0.02667 -0.20484,-0.06556 -0.30574,-0.08642 -0.10089,-0.02086 -0.29351,-0.06427 -0.42803,-0.09648 -0.13453,-0.03221 -0.5748,-0.11469 -0.97837,-0.183292 -1.8618,-0.31649 -3.34916,-0.413942 -4.75759,-0.311727 -1.3999,0.101604 -2.65188,0.267749 -3.56471,0.47306 -0.23204,0.05219 -0.5182,0.116689 -0.63591,0.143319 -0.45662,0.103322 -1.7347,0.560882 -2.18599,0.782593 -0.8254,0.405516 -1.17503,0.631006 -1.77892,1.147304 -0.27562,0.235641 -0.56005,0.682841 -0.56005,0.880546 0,0.149018 0.0425,0.217288 0.19186,0.308118 0.2597,0.157927 0.40353,0.09421 0.83196,-0.368539 z"
         id="path1243" />
      <path
         id="path1227"
         style="fill:#ffaaaa;stroke-width:0.06114814"
         d="m 95.658723,51.42981 c 0.042,-0.09052 0.0764,-0.226266 0.0764,-0.30165 0,-0.07539 0.0245,-0.152203 0.0544,-0.170688 0.0299,-0.01849 0.068,-0.1233 0.0846,-0.232914 0.0166,-0.109614 0.0766,-0.419433 0.13323,-0.688485 0.26525,-1.259762 0.36072,-2.996421 0.21652,-3.939047 -0.17502,-1.144152 -0.31955,-1.825245 -0.43232,-2.037354 -0.031,-0.0584 -0.0564,-0.156083 -0.0564,-0.217076 0,-0.06099 -0.0219,-0.137038 -0.0487,-0.168988 -0.0268,-0.03195 -0.0857,-0.168157 -0.13098,-0.302683 -0.2669,-0.793028 -1.01474,-2.054644 -1.64709,-2.778655 -0.83416,-0.955074 -1.60724,-1.568442 -2.66068,-2.111015 -1.22372,-0.630271 -2.12458,-0.884345 -3.62444,-1.022218 -1.48986,-0.136954 -3.47446,0.166066 -4.88212,0.745431 -0.0673,0.02768 -0.21791,0.08704 -0.33477,0.131896 -0.61463,0.235931 -1.93422,0.952474 -2.49801,1.356434 l -0.26455,0.189556 0.2034,0.08634 c 0.11188,0.04749 0.25845,0.107024 0.32571,0.132299 0.54441,0.204575 1.37074,0.545966 1.79465,0.741446 0.2808,0.129486 0.5234,0.235428 0.5391,0.235428 0.0371,0 1.62842,0.799456 1.94662,0.977961 2.49948,1.402195 4.70037,2.955943 6.41616,4.529578 0.20421,0.187286 0.55014,0.503728 0.76875,0.703203 0.94017,0.85791 2.77917,2.900533 3.53331,3.924563 0.15481,0.210196 0.31055,0.381962 0.3461,0.381699 0.0356,0 0.099,-0.07454 0.14108,-0.165064 z m -57.989164,5.207676 c 0.30798,-0.603942 0.72411,-1.373247 0.92475,-1.709562 0.20063,-0.336314 0.38249,-0.652756 0.40413,-0.703203 0.0734,-0.171191 1.32964,-2.014685 1.84658,-2.709835 1.67823,-2.256789 4.01141,-4.633471 6.24678,-6.363245 0.33632,-0.260248 0.65887,-0.511916 0.71678,-0.559263 0.17317,-0.141575 1.56536,-1.081954 2.17214,-1.467213 0.61133,-0.388148 0.61384,-0.400782 0.10734,-0.539081 -1.67754,-0.458045 -3.59628,-0.621088 -5.22816,-0.444257 -0.9384,0.101684 -1.11604,0.130819 -1.90323,0.312152 -2.76208,0.636254 -5.20087,2.202421 -6.62653,4.255479 -0.54039,0.778217 -1.06087,1.858301 -1.26418,2.623411 -0.20815,0.78329 -0.24314,1.041121 -0.27528,2.028792 -0.0408,1.25416 0.0612,2.105685 0.34678,2.893634 0.0244,0.06726 0.0922,0.273638 0.15062,0.458611 0.13129,0.415373 0.65278,1.504678 0.93677,1.956741 0.39238,0.624591 0.75744,1.107356 0.82128,1.086076 0.0349,-0.01164 0.31545,-0.515295 0.62343,-1.119237 z" />
      <path
         id="path1205"
         style="fill:#000000;stroke-width:0.06114814"
         d="m 46.082859,24.512011 c -0.32,-0.04369 -0.3982,-0.06483 -0.71849,-0.194278 -0.78728,-0.318172 -1.17256,-0.820201 -1.38528,-1.80504 -0.30025,-1.390008 -0.37,-2.522512 -0.26134,-4.243081 0.10395,-1.646086 0.43379,-3.883486 0.61864,-4.196414 0.10962,-0.185572 0.46392,-0.450845 0.60214,-0.450845 0.0442,0 0.10984,-0.02949 0.14588,-0.06553 0.0718,-0.07183 1.08242,-0.04593 1.39591,0.03578 0.1009,0.0263 0.30338,0.129677 0.44997,0.229735 l 0.26653,0.181924 -0.0338,0.374666 c -0.0186,0.206067 -0.0631,0.526008 -0.0989,0.710981 -0.23538,1.216589 -0.39742,3.001118 -0.39699,4.372093 6.1e-4,1.380434 0.18493,3.149129 0.3285,3.149129 0.0667,0 0.21238,-0.179773 0.34698,-0.428037 0.0638,-0.11771 0.13258,-0.227777 0.15281,-0.244592 0.0698,-0.05806 0.39135,-0.957126 0.49202,-1.375834 0.14889,-0.619304 0.1881,-0.861342 0.29721,-1.834444 0.16436,-1.46596 0.1554,-1.997526 -0.0629,-3.730037 -0.13751,-1.091349 -0.45089,-2.058448 -0.89338,-2.756965 -0.25235,-0.398371 -0.38001,-0.47565 -0.93983,-0.568906 -0.63283,-0.105421 -1.09447,-0.219109 -1.92616,-0.474365 -0.93831,-0.287978 -1.25354,-0.483965 -1.25354,-0.77938 0,-0.334236 0.35338,-0.5874436 1.0728,-0.7686996 1.21867,-0.307038 2.66297,-0.0486 3.83704,0.6865706 l 0.29314,0.183564 0.92982,-0.03885 c 0.51139,-0.02137 1.25349,-0.05601 1.6491,-0.07698 0.87539,-0.0464 1.18847,0.02343 1.45232,0.32395 0.10043,0.114379 0.1826,0.236329 0.1826,0.271002 0,0.236272 -0.39631,0.538071 -0.85608,0.651938 -0.63571,0.157436 -0.8631,0.198016 -1.11245,0.198519 -0.46,9.3e-4 -0.90544,0.07443 -0.90544,0.149413 0,0.03947 0.0688,0.214359 0.15287,0.388645 0.0841,0.174287 0.15287,0.352792 0.15287,0.396678 0,0.04388 0.0227,0.105933 0.0505,0.137883 0.0278,0.03195 0.086,0.181915 0.12939,0.333257 0.0434,0.151342 0.10178,0.343958 0.12978,0.428037 0.028,0.08408 0.0958,0.40052 0.15066,0.703204 0.0549,0.302683 0.13196,0.701675 0.17131,0.886648 0.097,0.455792 0.0966,3.643367 -6.1e-4,4.096925 -0.0396,0.184974 -0.11826,0.597724 -0.17483,0.917223 -0.0984,0.555644 -0.17365,0.864899 -0.27539,1.13124 -0.0257,0.06726 -0.10899,0.287397 -0.18511,0.489185 -0.4129,1.094618 -1.13653,1.970496 -1.94646,2.356007 -0.1547,0.07363 -0.33357,0.161208 -0.3975,0.194613 -0.15023,0.0785 -1.19225,0.11275 -1.62649,0.05347 z m -16.96861,3.081159 c -0.0336,-0.01235 -0.17684,-0.05218 -0.31825,-0.0885 -0.29948,-0.07694 -0.61315,-0.32077 -0.70317,-0.546598 -0.13873,-0.348024 -0.23838,-0.952935 -0.41894,-2.54307 -0.266,-2.342641 -0.32496,-3.546748 -0.32636,-6.665147 -0.001,-2.80793 0.0365,-3.801689 0.2068,-5.442185 0.0314,-0.302684 0.0813,-0.791484 0.11074,-1.086224 0.0438,-0.437711 0.0806,-0.56472 0.20106,-0.693256 0.26613,-0.284023 0.51474,-0.3547 1.24812,-0.354825 0.62354,-1.22e-4 0.6994,0.01318 1.03952,0.182029 0.49897,0.247717 0.52302,0.335719 0.41646,1.524239 -0.0452,0.504472 -0.10758,1.206147 -0.13856,1.559277 -0.28157,3.210374 -0.28362,6.481641 -0.006,9.172222 0.17163,1.661725 0.19736,1.860472 0.37249,2.877644 0.0322,0.186997 0.0585,0.614545 0.0585,0.950106 0,0.576069 -0.009,0.621329 -0.16815,0.811166 -0.12914,0.154394 -0.25331,0.221046 -0.53505,0.287188 -0.33818,0.07939 -0.89416,0.109311 -1.03952,0.05594 z m 11.09839,0.222286 c -0.54153,-0.122044 -0.99558,-0.481185 -1.07291,-0.848642 -0.0193,-0.09187 -0.061,-0.214817 -0.0926,-0.273215 -0.0316,-0.0584 -0.0575,-0.169842 -0.0575,-0.24765 0,-0.07781 -0.0247,-0.167612 -0.0549,-0.199562 -0.0302,-0.03195 -0.0682,-0.168157 -0.0845,-0.302683 -0.0163,-0.134526 -0.0746,-0.519759 -0.1295,-0.856074 -0.42668,-2.611324 -0.63347,-6.72195 -0.52115,-10.359974 0.0855,-2.770715 0.19342,-4.157568 0.34094,-4.382712 0.17478,-0.266744 1.07788,-0.5649906 1.49524,-0.4938006 0.55481,0.09463 0.64612,0.115568 0.78827,0.1807196 0.383,0.175542 0.4768,0.281185 0.51407,0.57903 0.02,0.159702 0.009,0.744392 -0.0247,1.299312 -0.0336,0.554919 -0.0951,1.573036 -0.13666,2.262481 -0.17921,2.971658 -0.002,7.10953 0.44474,10.364611 0.0369,0.269052 0.0858,0.640527 0.10872,0.8255 0.0403,0.325595 0.0475,0.336113 0.22509,0.329983 0.10089,-0.0035 0.45861,-0.109059 0.79493,-0.234616 1.48884,-0.555831 2.21637,-0.705807 2.83222,-0.583844 0.69203,0.137051 0.94819,0.335275 0.91715,0.709725 -0.0163,0.19682 -0.0643,0.266989 -0.30746,0.449322 -0.15846,0.118843 -0.48866,0.294492 -0.73377,0.390332 -0.24512,0.09584 -0.5007,0.19625 -0.56796,0.223134 -0.13119,0.05243 -0.15728,0.0616 -1.13124,0.397262 -0.35313,0.121702 -0.71085,0.250905 -0.79493,0.287115 -0.38081,0.164008 -0.58358,0.230223 -1.17939,0.385137 -0.42929,0.11162 -1.27908,0.165186 -1.57227,0.09911 z m 43.537474,-8.364797 c 0.0168,-0.01599 0.0391,-0.377697 0.0495,-0.803792 l 0.0189,-0.774718 -0.14124,0.153753 c -0.0777,0.08456 -0.27659,0.314536 -0.44204,0.511048 -0.16544,0.196513 -0.45922,0.484064 -0.65284,0.639002 -0.19363,0.154938 -0.34277,0.296715 -0.33143,0.31506 0.0247,0.03993 1.45516,0.0014 1.49909,-0.04035 z m 8.94813,4.241228 c 0.23466,-0.48119 0.38549,-0.90221 0.4748,-1.325349 0.0798,-0.378262 0.23368,-2.196755 0.20175,-2.384778 -0.0143,-0.08408 -0.0538,-0.469312 -0.0877,-0.856074 -0.0705,-0.80298 -0.12992,-1.196587 -0.27207,-1.80387 -0.0551,-0.235421 -0.1153,-0.517722 -0.13375,-0.627336 -0.0185,-0.109614 -0.058,-0.214425 -0.0879,-0.232914 -0.0299,-0.01849 -0.0544,-0.09528 -0.0544,-0.170648 0,-0.07537 -0.0219,-0.163173 -0.0487,-0.195123 -0.0268,-0.03195 -0.0839,-0.168157 -0.12695,-0.302683 -0.10026,-0.313219 -0.39113,-1.030149 -0.43416,-1.070092 -0.0181,-0.01682 -0.12191,-0.209433 -0.23067,-0.428038 -0.10875,-0.218604 -0.31498,-0.574684 -0.45829,-0.791288 -0.28758,-0.434684 -0.35104,-0.468208 -1.05547,-0.557498 -1.35895,-0.172255 -2.33353,-0.360446 -2.85646,-0.551582 -0.17683,-0.06464 -0.35247,-0.11752 -0.3903,-0.11752 -0.0378,0 -0.0881,0.144462 -0.11175,0.321027 -0.11589,0.865772 -0.27147,4.093581 -0.27663,5.739189 l -0.003,1.015493 0.50448,0.03514 c 0.27745,0.01933 0.52154,0.01638 0.54241,-0.0065 0.0209,-0.02293 0.0163,-0.206788 -0.0101,-0.408576 -0.0662,-0.505055 -0.0666,-3.573953 -6.1e-4,-4.086184 0.0579,-0.449266 0.15251,-0.602963 0.45874,-0.745226 0.76265,-0.354297 1.92753,-0.247692 2.34208,0.214336 0.13731,0.153046 0.13751,0.156408 0.13807,2.41574 6.1e-4,1.634479 0.0254,2.449185 0.09,2.935111 0.1309,0.98497 0.27208,1.701676 0.39751,2.017889 0.0267,0.06726 0.085,0.246121 0.12971,0.397463 0.24393,0.826569 0.90654,2.100415 1.06162,2.040906 0.0462,-0.01774 0.18035,-0.229678 0.29801,-0.470964 z m -10.41611,2.832789 c 0.70104,-0.838666 1.14875,-2.34336 1.34113,-4.507322 0.0305,-0.343392 0.0717,-0.650471 0.0914,-0.682398 0.0197,-0.03193 0.0176,-0.105653 -0.005,-0.163837 -0.0362,-0.09444 -0.10667,-0.101459 -0.65666,-0.06541 -0.69255,0.04538 -0.86443,0.08963 -1.4747,0.379631 -0.66154,0.31436 -1.15447,0.856839 -1.4397,1.584406 -0.20547,0.524107 -0.20831,1.593688 -0.006,2.164254 0.23577,0.664134 0.87441,1.520369 1.3029,1.746799 0.12155,0.06424 0.17931,0.05624 0.37971,-0.05257 0.13,-0.07058 0.33989,-0.252177 0.46642,-0.403553 z m -1.13081,2.102881 c -0.6665,-0.06604 -1.54539,-0.44585 -2.13805,-0.923958 -0.656084,-0.529265 -1.153404,-1.222891 -1.568734,-2.187932 -0.13024,-0.302639 -0.23555,-0.964422 -0.23637,-1.485562 -8.6e-4,-0.538928 0.13479,-1.31724 0.25211,-1.446492 0.029,-0.03195 0.0527,-0.09592 0.0527,-0.142162 0,-0.128194 0.50199,-0.876184 0.77057,-1.148194 0.568744,-0.575989 0.839154,-0.749196 2.011574,-1.288526 l 0.2445,-0.112471 -0.51446,-0.07312 c -0.6395,-0.09089 -0.97923,-0.2585 -1.416644,-0.698909 -0.38231,-0.384919 -0.61583,-0.766101 -0.80209,-1.309229 -0.40895,-1.192517 -0.49864,-2.093147 -0.45794,-4.598689 0.0342,-2.108643 0.028,-2.083304 0.57629,-2.342993 0.24752,-0.117242 0.39268,-0.138025 0.964034,-0.138025 0.57135,0 0.71651,0.02078 0.96403,0.138025 0.16028,0.07591 0.35023,0.220642 0.42214,0.321619 0.12879,0.180878 0.12956,0.197739 0.0517,1.139347 -0.10806,1.306021 -0.0281,3.294939 0.17603,4.380049 0.11602,0.61666 0.28381,1.131241 0.36888,1.131241 0.20485,0 1.45733,-1.821918 1.87062,-2.721093 0.0618,-0.134525 0.1572,-0.313384 0.21194,-0.397462 0.0547,-0.08408 0.19186,-0.359246 0.30472,-0.611482 0.11287,-0.252236 0.31085,-0.68287 0.43996,-0.956965 0.12911,-0.274094 0.23474,-0.515165 0.23474,-0.535713 0,-0.02055 0.0578,-0.167762 0.1284,-0.327146 0.0706,-0.159382 0.14948,-0.34482 0.17526,-0.412083 0.0258,-0.06726 0.0771,-0.191088 0.11399,-0.275167 0.0369,-0.08408 0.16628,-0.455554 0.28749,-0.8255 0.2544,-0.776455 0.36917,-0.9082426 0.8841,-1.0152036 0.41387,-0.08597 1.08465,-0.03639 1.3756,0.101678 0.11918,0.05656 0.26444,0.1838796 0.32279,0.2829416 0.0765,0.129811 0.14025,0.171771 0.22839,0.150245 0.0673,-0.01643 0.2874,-0.07231 0.48919,-0.124188 0.407,-0.104632 1.78909,-0.134556 2.0852,-0.04515 0.0975,0.02944 0.32862,0.0877 0.51359,0.129454 0.32324,0.07297 0.63296,0.184803 0.88183,0.318398 0.70681,0.379423 0.93969,0.529485 1.25935,0.811495 0.19945,0.175955 0.26808,0.195361 0.9478,0.268024 0.47036,0.05028 1.3326,0.07139 2.40773,0.05893 1.59977,-0.01853 1.67798,-0.02488 1.74272,-0.141439 0.27098,-0.487898 0.48051,-0.63128 1.11295,-0.761613 0.63453,-0.130761 1.517757,0.126811 1.773557,0.517215 0.10639,0.162372 0.0812,0.388139 -0.19067,1.711692 -0.36127,1.758502 -0.638107,4.473834 -0.639007,6.267684 -7.4e-4,1.519278 0.1094,2.61255 0.375837,3.730037 0.22725,0.953103 0.81299,2.241828 0.99239,2.18343 0.0723,-0.02354 0.49318,-0.953967 0.5451,-1.20506 0.0174,-0.08408 0.0635,-0.262937 0.10257,-0.397462 0.0756,-0.260543 0.21721,-0.858623 0.27508,-1.161815 0.0193,-0.100895 0.06,-0.321028 0.0904,-0.489185 0.0305,-0.168158 0.0831,-0.457083 0.11702,-0.642056 0.0339,-0.184973 0.0911,-0.577004 0.12712,-0.871181 0.036,-0.294175 0.0933,-0.7482 0.12734,-1.008944 0.034,-0.260743 0.0912,-0.776762 0.12706,-1.146708 0.0359,-0.369946 0.0906,-0.906521 0.12167,-1.192389 0.0944,-0.869975 0.16741,-1.643826 0.23066,-2.445926 0.21101,-2.675935 0.31018,-3.234379 0.63834,-3.594366 0.19344,-0.21221 0.71534,-0.339994 1.22863,-0.30083 0.59974,0.04576 0.8814,0.142825 1.12695,0.388369 l 0.2106,0.210603 -0.0438,0.62388 c -0.14738,2.098346 -0.30422,3.992817 -0.40346,4.873678 -0.0818,0.725897 -0.17178,1.47686 -0.20883,1.742722 -0.0187,0.134526 -0.0924,0.698617 -0.16363,1.253537 -0.19932,1.552421 -0.27106,2.021716 -0.41129,2.690518 -0.0317,0.151342 -0.0886,0.426508 -0.12644,0.611481 -0.0871,0.426051 -0.29758,1.21563 -0.36675,1.375834 -0.029,0.06726 -0.1303,0.314913 -0.22502,0.550333 -0.25946,0.644865 -0.52535,1.063185 -0.92485,1.455064 -0.43115,0.422923 -0.60251,0.532481 -1.12053,0.716401 -0.57334,0.203559 -1.62526,0.191577 -2.21366,-0.02521 -0.870957,-0.320898 -1.656607,-1.079129 -2.091307,-2.018306 -0.23865,-0.515607 -0.4626,-1.097915 -0.4626,-1.202839 0,-0.06065 -0.0245,-0.125404 -0.0544,-0.143893 -0.0299,-0.01849 -0.0691,-0.1233 -0.0871,-0.232915 -0.018,-0.109614 -0.0864,-0.488223 -0.15203,-0.841353 -0.27652,-1.487885 -0.35488,-3.035721 -0.2585,-5.10587 0.0711,-1.527174 0.12261,-2.038998 0.40973,-4.072309 l 0.0311,-0.219974 -1.51895,-0.03436 c -0.83542,-0.0189 -1.52862,-0.0249 -1.54043,-0.01333 -0.0118,0.01156 0.0742,0.222322 0.19114,0.468351 0.11693,0.246028 0.25731,0.550512 0.31193,0.67663 0.0546,0.126118 0.14254,0.326987 0.19536,0.446377 0.55217,1.248028 0.9762,3.581465 0.97172,5.34741 -0.006,2.510471 -0.673,4.491025 -1.7821,5.294607 -0.29132,0.211073 -0.55003,0.321638 -1.21617,0.519762 -0.2498,0.0743 -0.97563,0.07117 -1.22957,-0.0053 -0.11169,-0.03363 -0.30626,-0.09034 -0.43238,-0.126028 -0.58592,-0.165778 -1.24179,-0.546817 -1.55949,-0.906003 -0.46742,-0.528457 -1.00619,-1.552345 -1.32317,-2.514561 -0.28261,-0.857904 -0.29884,-0.915405 -0.36939,-1.309354 -0.0356,-0.198857 -0.0786,-0.375438 -0.0956,-0.392402 -0.017,-0.01696 -0.24409,0.01915 -0.50471,0.08025 -0.26063,0.0611 -0.55642,0.129261 -0.65731,0.151461 l -0.18345,0.04036 -0.0397,0.577256 c -0.0498,0.723978 -0.22431,2.02566 -0.32745,2.442275 -0.0208,0.08408 -0.0665,0.276696 -0.10151,0.428037 -0.0778,0.336239 -0.22547,0.843481 -0.29373,1.008945 -0.3401,0.824366 -0.67601,1.375003 -1.09699,1.798201 -0.45819,0.460609 -0.93483,0.756039 -1.68721,1.045775 -0.42853,0.16502 -1.37193,0.264709 -1.95674,0.206765 z M 58.890289,15.716677 c 0.12291,-1.014011 0.16178,-1.569363 0.19366,-2.766954 0.0331,-1.24245 0.01,-1.579102 -0.1485,-2.135188 -0.0747,-0.262699 -0.17275,-0.201419 -0.36476,0.228006 -0.45213,1.011161 -0.5455,2.638681 -0.22391,3.903001 0.14436,0.567515 0.36889,1.122737 0.45405,1.122737 0.0258,0 0.066,-0.158221 0.0895,-0.351602 z m 6.58072,2.457748 c 1.3542,-0.388113 2.38048,-1.352395 2.8163,-2.646163 0.17829,-0.529272 0.19609,-1.592861 0.0343,-2.048249 -0.14543,-0.409298 -0.26716,-0.632057 -0.36616,-0.670045 -0.11934,-0.0458 -0.39962,0.02794 -0.68475,0.180155 -0.23035,0.122966 -0.76435,0.633552 -0.76435,0.730833 0,0.02455 -0.0382,0.08808 -0.0849,0.141175 -0.12345,0.1404 -0.37029,0.6409 -0.65077,1.3195 -0.0698,0.168879 -0.21597,0.672914 -0.30145,1.039518 -0.0392,0.168157 -0.0959,0.402049 -0.12607,0.519759 -0.0301,0.11771 -0.0706,0.310327 -0.0899,0.428037 -0.11386,0.694741 -0.14587,0.855615 -0.18182,0.913769 -0.034,0.05498 0.002,0.186898 0.0515,0.186898 0.009,0 0.16533,-0.04283 0.348,-0.09519 z m -9.51273,11.026033 c -0.10089,-0.03455 -0.25223,-0.09353 -0.33631,-0.131079 -0.20548,-0.09176 -0.80356,-0.695934 -0.91502,-0.924342 -0.0492,-0.100894 -0.13318,-0.252236 -0.18655,-0.336315 -0.20203,-0.318295 -1.06653,-2.785735 -1.40327,-4.005203 -0.0743,-0.269052 -0.16022,-0.536966 -0.19096,-0.595365 -0.0307,-0.0584 -0.0559,-0.161959 -0.0559,-0.230135 0,-0.06818 -0.0267,-0.171736 -0.0594,-0.230135 -0.0327,-0.0584 -0.15778,-0.51893 -0.27803,-1.023402 -0.12025,-0.504472 -0.24714,-1.027289 -0.28197,-1.161815 -0.16307,-0.629818 -0.27932,-1.13733 -0.36416,-1.589851 -0.0378,-0.201789 -0.0933,-0.490714 -0.12325,-0.642056 -0.0299,-0.151342 -0.0845,-0.440267 -0.12112,-0.642055 -0.0367,-0.201789 -0.0918,-0.504473 -0.12251,-0.67263 -0.0542,-0.296863 -0.18167,-1.173702 -0.30659,-2.109611 -0.0337,-0.252236 -0.0761,-0.880668 -0.0943,-1.396516 -0.0321,-0.910144 -0.0291,-0.942224 0.10399,-1.083841 0.23631,-0.251546 0.63321,-0.361181 1.31106,-0.362154 0.67281,-9.66e-4 1.0723,0.108006 1.30534,0.356066 0.14061,0.149677 0.19008,0.435918 0.31878,1.844389 0.075,0.820236 0.15214,1.47084 0.23944,2.017889 0.0322,0.201789 0.074,0.476956 0.0929,0.611482 0.0581,0.413179 0.29166,1.677458 0.46881,2.537648 0.0312,0.151341 0.0711,0.357716 0.0887,0.458611 0.0176,0.100894 0.0542,0.238477 0.0813,0.30574 0.0271,0.06726 0.12365,0.438738 0.21457,0.8255 0.0909,0.386762 0.18884,0.785754 0.21759,0.886648 0.0288,0.100895 0.0844,0.30727 0.12354,0.458612 0.0392,0.151341 0.0961,0.322947 0.12644,0.381346 0.0303,0.0584 0.0552,0.140612 0.0552,0.182697 0,0.04208 0.10002,0.393295 0.22226,0.780468 0.12224,0.387173 0.25669,0.812975 0.29879,0.946226 0.0421,0.13325 0.10314,0.251145 0.13567,0.261987 0.0325,0.01084 0.11987,-0.153214 0.1941,-0.36457 0.0742,-0.211356 0.15933,-0.439318 0.18912,-0.50658 0.0727,-0.164115 0.38924,-1.133961 0.51892,-1.589852 0.0574,-0.201789 0.12684,-0.421922 0.15431,-0.489185 0.0275,-0.06726 0.0677,-0.191088 0.0895,-0.275167 0.0217,-0.08408 0.13719,-0.524345 0.25655,-0.97837 0.20382,-0.775292 0.24552,-0.952095 0.37854,-1.605139 0.0291,-0.142934 0.0723,-0.305224 0.0959,-0.360645 0.042,-0.09869 -0.16573,-0.357846 -0.2869,-0.357846 -0.11916,0 -0.65008,-0.417477 -1.04604,-0.822531 -0.4734,-0.484263 -0.67303,-0.75715 -0.94155,-1.28708 -0.32154,-0.634546 -0.37677,-0.779354 -0.5365,-1.406407 -0.1335,-0.524097 -0.15593,-0.746927 -0.15694,-1.559278 -6.7e-4,-0.521288 0.0287,-1.085379 0.0652,-1.253537 0.0953,-0.439457 0.25758,-0.968807 0.31762,-1.036461 0.0284,-0.03195 0.0516,-0.09539 0.0516,-0.140966 0,-0.152509 0.62098,-1.0530816 0.87764,-1.2727896 0.29692,-0.254173 0.90681,-0.566747 1.27724,-0.654588 0.14326,-0.03397 0.55717,-0.07334 0.91981,-0.08747 0.59236,-0.02309 0.70401,-0.0097 1.09907,0.132194 1.16824,0.419478 1.54592,1.0157186 1.76407,2.7849166 0.1362,1.104625 -0.0467,3.613371 -0.42272,5.797931 -0.0511,0.297065 -0.0448,0.332107 0.0731,0.405402 0.071,0.04413 0.23358,0.09577 0.36126,0.11477 0.27373,0.04072 0.29631,0.0041 0.4076,-0.6619 0.22325,-1.335842 0.49573,-2.279092 0.91852,-3.179704 0.27692,-0.589877 0.87291,-1.459254 1.17374,-1.712148 0.73018,-0.613815 1.35306,-0.976178 1.9981,-1.162399 0.18985,-0.05481 0.44149,-0.127121 0.5592,-0.16069 0.38091,-0.108628 1.90074,-0.02521 2.29306,0.125856 0.88185,0.339566 1.42148,0.756647 1.73148,1.338269 0.26046,0.488684 0.33263,0.795887 0.36187,1.540538 0.0246,0.625122 0.005,0.757429 -0.20823,1.436982 -0.50732,1.613921 -2.03758,3.047386 -3.89194,3.645764 -0.59046,0.190532 -1.35658,0.352614 -1.89158,0.400188 -0.31061,0.02762 -0.35622,0.04887 -0.38952,0.181557 -0.13177,0.525039 0.16676,4.686432 0.35012,4.880507 0.0302,0.03195 0.0549,0.10933 0.0549,0.171955 0,0.150329 0.18472,0.711319 0.24686,0.749728 0.0581,0.03591 0.26394,-0.598897 0.49118,-1.51482 0.0313,-0.126118 0.0844,-0.332493 0.11792,-0.458611 0.0717,-0.269339 0.28226,-1.343013 0.37477,-1.91088 0.0356,-0.218604 0.0907,-0.548804 0.12229,-0.733777 0.0316,-0.184974 0.0797,-0.487657 0.1069,-0.67263 0.0666,-0.453656 0.14955,-0.634727 0.35932,-0.784098 0.60251,-0.429026 2.21129,-0.285172 2.40611,0.215149 0.0733,0.188266 0.0357,1.085607 -0.0713,1.70019 -0.0907,0.52096 -0.41877,2.15503 -0.49107,2.445925 -0.0334,0.134526 -0.0846,0.340901 -0.11365,0.458611 -0.39773,1.610232 -0.48862,1.908458 -0.72422,2.376395 -0.17747,0.352469 -0.66055,0.833769 -0.99716,0.993467 -0.62999,0.298901 -0.89057,0.360175 -1.53168,0.360175 -1.56119,0 -2.51761,-0.784588 -3.09343,-2.537648 -0.2859,-0.870402 -0.39868,-1.452071 -0.5098,-2.62937 -0.091,-0.963944 -0.1299,-2.617081 -0.0703,-2.983832 l 0.0577,-0.354462 -0.21268,-0.08886 c -0.11697,-0.04887 -0.33092,-0.08886 -0.47546,-0.08886 -0.26015,0 -0.26368,0.0029 -0.35241,0.290453 -0.0493,0.15975 -0.13651,0.524346 -0.19381,0.810213 -0.0573,0.285868 -0.12925,0.56754 -0.15988,0.625939 -0.0306,0.0584 -0.0557,0.173721 -0.0557,0.256271 0,0.08255 -0.0275,0.167097 -0.0611,0.187883 -0.0336,0.02079 -0.0611,0.09246 -0.0611,0.159273 0,0.118616 -0.0707,0.359766 -0.50929,1.736319 -0.22262,0.698764 -0.56115,1.683474 -0.65168,1.895593 -0.0287,0.06726 -0.12539,0.328671 -0.21486,0.580907 -0.0895,0.252236 -0.18799,0.520524 -0.21893,0.596195 -0.11933,0.291899 -0.17116,0.424909 -0.30383,0.779638 -0.0755,0.201789 -0.17727,0.463198 -0.22622,0.580908 -0.0489,0.11771 -0.11738,0.28281 -0.15209,0.366889 -0.14988,0.363127 -0.21028,0.455562 -0.39302,0.601461 -0.10638,0.08493 -0.32651,0.189509 -0.48918,0.232393 -0.34978,0.09221 -1.01537,0.09615 -1.27414,0.0075 z" />
      <path
         style="opacity:1;fill:#ffffff;fill-opacity:1;stroke:none;stroke-width:0.99999994;stroke-miterlimit:4;stroke-dasharray:none"
         d="M 222.85742 198.5918 A 17.142857 17.142857 0 0 0 205.71484 215.73438 A 17.142857 17.142857 0 0 0 210.96484 228.05469 A 14.285714 14.285714 0 0 1 208.92773 220.73438 A 14.285714 14.285714 0 0 1 223.21484 206.44922 A 14.285714 14.285714 0 0 1 237.5 220.73438 A 14.285714 14.285714 0 0 1 236.4082 226.19922 A 17.142857 17.142857 0 0 0 240 215.73438 A 17.142857 17.142857 0 0 0 222.85742 198.5918 z "
         transform="scale(0.26458333)"
         id="path1290" />
      <path
         style="opacity:1;fill:#ffffff;fill-opacity:1;stroke:none;stroke-width:0.99999994;stroke-miterlimit:4;stroke-dasharray:none"
         d="M 295.35742 194.66211 A 17.142857 17.142857 0 0 0 278.21484 211.80469 A 17.142857 17.142857 0 0 0 282.19531 222.76367 A 14.285714 14.285714 0 0 1 280.71484 216.44922 A 14.285714 14.285714 0 0 1 295 202.16211 A 14.285714 14.285714 0 0 1 309.28516 216.44922 A 14.285714 14.285714 0 0 1 306.70508 224.62695 A 17.142857 17.142857 0 0 0 312.5 211.80469 A 17.142857 17.142857 0 0 0 295.35742 194.66211 z "
         transform="scale(0.26458333)"
         id="circle1292" />
    </g>
  </g>
</svg>
